<?xml version="1.0" encoding="UTF-8" standalone="no"?>
<!DOCTYPE svg PUBLIC "-//W3C//DTD SVG 1.1//EN"
 "http://www.w3.org/Graphics/SVG/1.1/DTD/svg11.dtd">
<!-- Generated by graphviz version 2.30.1 (20171025.2055)
 -->
<!-- Title: systemd Pages: 1 -->
<svg width="346pt" height="116pt"
 viewBox="0.00 0.00 346.00 116.00" xmlns="http://www.w3.org/2000/svg" xmlns:xlink="http://www.w3.org/1999/xlink">
<g id="graph0" class="graph" transform="scale(1 1) rotate(0) translate(4 112)">
<title>systemd</title>
<polygon fill="white" stroke="white" points="-4,5 -4,-112 343,-112 343,5 -4,5"/>
<!-- ntpd.service -->
<g id="node1" class="node"><title>ntpd.service</title>
<ellipse fill="none" stroke="black" cx="53" cy="-90" rx="53.4184" ry="18"/>
<text text-anchor="middle" x="53" y="-86.3" font-family="Times,serif" font-size="14.00">ntpd.service</text>
</g>
<!-- chronyd.service -->
<g id="node2" class="node"><title>chronyd.service</title>
<ellipse fill="none" stroke="black" cx="142" cy="-18" rx="66.4165" ry="18"/>
<text text-anchor="middle" x="142" y="-14.3" font-family="Times,serif" font-size="14.00">chronyd.service</text>
</g>
<!-- ntpd.service&#45;&gt;chronyd.service -->
<g id="edge1" class="edge"><title>ntpd.service&#45;&gt;chronyd.service</title>
<path fill="none" stroke="red" d="M73.1955,-73.1159C84.9754,-63.8508 100.033,-52.0077 113.057,-41.7643"/>
<polygon fill="red" stroke="red" points="115.57,-44.2402 121.267,-35.307 111.243,-38.7381 115.57,-44.2402"/>
</g>
<!-- systemd&#45;timesyncd.service -->
<g id="node3" class="node"><title>systemd&#45;timesyncd.service</title>
<ellipse fill="none" stroke="black" cx="232" cy="-90" rx="106.386" ry="18"/>
<text text-anchor="middle" x="232" y="-86.3" font-family="Times,serif" font-size="14.00">systemd&#45;timesyncd.service</text>
</g>
<!-- systemd&#45;timesyncd.service&#45;&gt;chronyd.service -->
<g id="edge2" class="edge"><title>systemd&#45;timesyncd.service&#45;&gt;chronyd.service</title>
<path fill="none" stroke="red" d="M210.214,-72.055C198.435,-62.894 183.735,-51.4606 171,-41.5559"/>
<polygon fill="red" stroke="red" points="173.008,-38.6837 162.966,-35.307 168.711,-44.2092 173.008,-38.6837"/>
</g>
</g>
</svg>
