<?xml version="1.0" encoding="UTF-8" standalone="no"?>
<!DOCTYPE svg PUBLIC "-//W3C//DTD SVG 1.1//EN"
 "http://www.w3.org/Graphics/SVG/1.1/DTD/svg11.dtd">
<!-- Generated by graphviz version 2.38.0 (20140413.2041)
 -->
<!-- Title: systemd Pages: 1 -->
<svg width="2514pt" height="548pt"
 viewBox="0.00 0.00 2513.93 548.00" xmlns="http://www.w3.org/2000/svg" xmlns:xlink="http://www.w3.org/1999/xlink">
<g id="graph0" class="graph" transform="scale(1 1) rotate(0) translate(4 544)">
<title>systemd</title>
<polygon fill="white" stroke="none" points="-4,4 -4,-544 2509.93,-544 2509.93,4 -4,4"/>
<!-- network.target -->
<g id="node1" class="node"><title>network.target</title>
<ellipse fill="none" stroke="black" cx="132.092" cy="-162" rx="61.99" ry="18"/>
<text text-anchor="middle" x="132.092" y="-158.3" font-family="Times,serif" font-size="14.00">network.target</text>
</g>
<!-- network&#45;pre.target -->
<g id="node2" class="node"><title>network&#45;pre.target</title>
<ellipse fill="none" stroke="black" cx="184.092" cy="-90" rx="76.0865" ry="18"/>
<text text-anchor="middle" x="184.092" y="-86.3" font-family="Times,serif" font-size="14.00">network&#45;pre.target</text>
</g>
<!-- network.target&#45;&gt;network&#45;pre.target -->
<g id="edge1" class="edge"><title>network.target&#45;&gt;network&#45;pre.target</title>
<path fill="none" stroke="green" d="M144.68,-144.055C150.94,-135.629 158.627,-125.28 165.546,-115.966"/>
<polygon fill="green" stroke="green" points="168.467,-117.904 171.62,-107.789 162.848,-113.729 168.467,-117.904"/>
</g>
<!-- shutdown.target -->
<g id="node3" class="node"><title>shutdown.target</title>
<ellipse fill="none" stroke="black" cx="984.092" cy="-18" rx="67.6881" ry="18"/>
<text text-anchor="middle" x="984.092" y="-14.3" font-family="Times,serif" font-size="14.00">shutdown.target</text>
</g>
<!-- network.target&#45;&gt;shutdown.target -->
<g id="edge2" class="edge"><title>network.target&#45;&gt;shutdown.target</title>
<path fill="none" stroke="red" d="M116.919,-144.521C100.739,-124.949 79.884,-92.393 99.0923,-72 126.609,-42.7866 696.809,-25.9932 907.089,-20.7745"/>
<polygon fill="red" stroke="red" points="907.216,-24.2726 917.126,-20.5274 907.043,-17.2747 907.216,-24.2726"/>
</g>
<!-- network&#45;pre.target&#45;&gt;shutdown.target -->
<g id="edge63" class="edge"><title>network&#45;pre.target&#45;&gt;shutdown.target</title>
<path fill="none" stroke="red" d="M239.627,-77.501C250.991,-75.4326 262.898,-73.4703 274.092,-72 503.192,-41.9084 776.295,-27.503 906.974,-21.9205"/>
<polygon fill="red" stroke="red" points="907.431,-25.4045 917.274,-21.4863 907.136,-18.4107 907.431,-25.4045"/>
</g>
<!-- getty.target -->
<g id="node4" class="node"><title>getty.target</title>
<ellipse fill="none" stroke="black" cx="1167.09" cy="-378" rx="50.8918" ry="18"/>
<text text-anchor="middle" x="1167.09" y="-374.3" font-family="Times,serif" font-size="14.00">getty.target</text>
</g>
<!-- getty.target&#45;&gt;shutdown.target -->
<g id="edge3" class="edge"><title>getty.target&#45;&gt;shutdown.target</title>
<path fill="none" stroke="red" d="M1177.53,-360.217C1201.89,-318.713 1256.6,-209.861 1205.09,-144 1164.19,-91.6956 1116.57,-142.916 1060.09,-108 1053.03,-103.632 1023.98,-68.5341 1003.92,-43.7444"/>
<polygon fill="red" stroke="red" points="1006.5,-41.3774 997.501,-35.7919 1001.06,-45.7726 1006.5,-41.3774"/>
</g>
<!-- network&#45;online.target -->
<g id="node5" class="node"><title>network&#45;online.target</title>
<ellipse fill="none" stroke="black" cx="87.0923" cy="-234" rx="87.1846" ry="18"/>
<text text-anchor="middle" x="87.0923" y="-230.3" font-family="Times,serif" font-size="14.00">network&#45;online.target</text>
</g>
<!-- network&#45;online.target&#45;&gt;network.target -->
<g id="edge4" class="edge"><title>network&#45;online.target&#45;&gt;network.target</title>
<path fill="none" stroke="green" d="M97.9855,-216.055C103.347,-207.715 109.92,-197.491 115.859,-188.252"/>
<polygon fill="green" stroke="green" points="118.836,-190.093 121.299,-179.789 112.948,-186.308 118.836,-190.093"/>
</g>
<!-- network&#45;online.target&#45;&gt;shutdown.target -->
<g id="edge5" class="edge"><title>network&#45;online.target&#45;&gt;shutdown.target</title>
<path fill="none" stroke="red" d="M76.3165,-216.084C70.5579,-206.029 64.0579,-192.779 61.0923,-180 49.9072,-131.804 48.2758,-101.371 88.0923,-72 153.105,-24.0432 700.736,-19.0037 906.429,-18.8194"/>
<polygon fill="red" stroke="red" points="906.552,-22.3195 916.55,-18.8141 906.548,-15.3195 906.552,-22.3195"/>
</g>
<!-- slices.target -->
<g id="node6" class="node"><title>slices.target</title>
<ellipse fill="none" stroke="black" cx="665.092" cy="-234" rx="52.7911" ry="18"/>
<text text-anchor="middle" x="665.092" y="-230.3" font-family="Times,serif" font-size="14.00">slices.target</text>
</g>
<!-- slices.target&#45;&gt;shutdown.target -->
<g id="edge6" class="edge"><title>slices.target&#45;&gt;shutdown.target</title>
<path fill="none" stroke="red" d="M621.585,-223.713C597.842,-216.186 570.435,-202.922 556.092,-180 530.632,-139.309 524.305,-107.966 556.092,-72 578.954,-46.1322 791.024,-30.0279 907.807,-23.0454"/>
<polygon fill="red" stroke="red" points="908.336,-26.5204 918.113,-22.4381 907.925,-19.5325 908.336,-26.5204"/>
</g>
<!-- remote&#45;fs.target -->
<g id="node7" class="node"><title>remote&#45;fs.target</title>
<ellipse fill="none" stroke="black" cx="1733.09" cy="-378" rx="67.6881" ry="18"/>
<text text-anchor="middle" x="1733.09" y="-374.3" font-family="Times,serif" font-size="14.00">remote&#45;fs.target</text>
</g>
<!-- remote&#45;fs.target&#45;&gt;shutdown.target -->
<g id="edge9" class="edge"><title>remote&#45;fs.target&#45;&gt;shutdown.target</title>
<path fill="none" stroke="red" d="M1788.28,-367.601C1855.76,-352.581 1961.09,-316.141 1961.09,-235 1961.09,-235 1961.09,-235 1961.09,-161 1961.09,-118.496 1960.53,-96.9091 1926.09,-72 1856.88,-21.9435 1275.09,-18.2721 1061.95,-18.6294"/>
<polygon fill="red" stroke="red" points="1061.77,-15.1297 1051.78,-18.65 1061.78,-22.1296 1061.77,-15.1297"/>
</g>
<!-- remote&#45;fs&#45;pre.target -->
<g id="node8" class="node"><title>remote&#45;fs&#45;pre.target</title>
<ellipse fill="none" stroke="black" cx="1758.09" cy="-306" rx="81.4863" ry="18"/>
<text text-anchor="middle" x="1758.09" y="-302.3" font-family="Times,serif" font-size="14.00">remote&#45;fs&#45;pre.target</text>
</g>
<!-- remote&#45;fs.target&#45;&gt;remote&#45;fs&#45;pre.target -->
<g id="edge7" class="edge"><title>remote&#45;fs.target&#45;&gt;remote&#45;fs&#45;pre.target</title>
<path fill="none" stroke="green" d="M1739.14,-360.055C1741.96,-352.176 1745.37,-342.617 1748.52,-333.794"/>
<polygon fill="green" stroke="green" points="1751.86,-334.87 1751.92,-324.275 1745.26,-332.516 1751.86,-334.87"/>
</g>
<!-- nfs&#45;client.target -->
<g id="node9" class="node"><title>nfs&#45;client.target</title>
<ellipse fill="none" stroke="black" cx="1653.09" cy="-234" rx="66.0889" ry="18"/>
<text text-anchor="middle" x="1653.09" y="-230.3" font-family="Times,serif" font-size="14.00">nfs&#45;client.target</text>
</g>
<!-- remote&#45;fs.target&#45;&gt;nfs&#45;client.target -->
<g id="edge8" class="edge"><title>remote&#45;fs.target&#45;&gt;nfs&#45;client.target</title>
<path fill="none" stroke="#a8a8a8" d="M1705.98,-361.483C1692.45,-352.321 1677.1,-339.481 1668.09,-324 1657.23,-305.318 1653.71,-280.931 1652.79,-262.41"/>
<polygon fill="#a8a8a8" stroke="#a8a8a8" points="1656.28,-262.169 1652.5,-252.271 1649.28,-262.365 1656.28,-262.169"/>
</g>
<!-- remote&#45;fs&#45;pre.target&#45;&gt;shutdown.target -->
<g id="edge74" class="edge"><title>remote&#45;fs&#45;pre.target&#45;&gt;shutdown.target</title>
<path fill="none" stroke="red" d="M1755,-287.788C1751.04,-268.972 1742.84,-238.505 1728.09,-216 1724.83,-211.016 1574.55,-74.3924 1569.09,-72 1480.02,-32.955 1198.96,-22.6707 1061.42,-19.9646"/>
<polygon fill="red" stroke="red" points="1061.43,-16.4644 1051.37,-19.7754 1061.3,-23.4631 1061.43,-16.4644"/>
</g>
<!-- remote&#45;fs&#45;pre.target&#45;&gt;nfs&#45;client.target -->
<g id="edge73" class="edge"><title>remote&#45;fs&#45;pre.target&#45;&gt;nfs&#45;client.target</title>
<path fill="none" stroke="green" d="M1728.51,-289.116C1713.25,-279.674 1694.89,-267.556 1680.03,-257.181"/>
<polygon fill="green" stroke="green" points="1681.93,-254.233 1671.74,-251.307 1677.88,-259.944 1681.93,-254.233"/>
</g>
<!-- nfs&#45;client.target&#45;&gt;shutdown.target -->
<g id="edge60" class="edge"><title>nfs&#45;client.target&#45;&gt;shutdown.target</title>
<path fill="none" stroke="red" d="M1702.61,-222.009C1793.81,-199.693 1972.95,-144.938 1904.09,-72 1875.32,-41.5275 1277.23,-25.4303 1061.13,-20.5918"/>
<polygon fill="red" stroke="red" points="1061.21,-17.0928 1051.13,-20.3699 1061.05,-24.0911 1061.21,-17.0928"/>
</g>
<!-- nfs&#45;client.target&#45;&gt;remote&#45;fs&#45;pre.target -->
<g id="edge59" class="edge"><title>nfs&#45;client.target&#45;&gt;remote&#45;fs&#45;pre.target</title>
<path fill="none" stroke="#a8a8a8" d="M1681.69,-250.274C1696.95,-259.69 1715.54,-271.933 1730.62,-282.452"/>
<polygon fill="#a8a8a8" stroke="#a8a8a8" points="1728.86,-285.493 1739.05,-288.411 1732.91,-279.778 1728.86,-285.493"/>
</g>
<!-- basic.target -->
<g id="node10" class="node"><title>basic.target</title>
<ellipse fill="none" stroke="black" cx="665.092" cy="-306" rx="51.1914" ry="18"/>
<text text-anchor="middle" x="665.092" y="-302.3" font-family="Times,serif" font-size="14.00">basic.target</text>
</g>
<!-- basic.target&#45;&gt;shutdown.target -->
<g id="edge19" class="edge"><title>basic.target&#45;&gt;shutdown.target</title>
<path fill="none" stroke="red" d="M613.751,-305.259C524.4,-304.496 346.086,-297.191 307.092,-252 261.588,-199.263 261.829,-149.658 370.092,-72 412.798,-41.3667 751.649,-26.5351 906.892,-21.2947"/>
<polygon fill="red" stroke="red" points="907.419,-24.7792 917.297,-20.9486 907.186,-17.7831 907.419,-24.7792"/>
</g>
<!-- basic.target&#45;&gt;slices.target -->
<g id="edge10" class="edge"><title>basic.target&#45;&gt;slices.target</title>
<path fill="none" stroke="green" d="M659.214,-288.055C658.396,-280.346 658.154,-271.027 658.487,-262.364"/>
<polygon fill="green" stroke="green" points="661.987,-262.491 659.179,-252.275 655.003,-262.012 661.987,-262.491"/>
</g>
<!-- basic.target&#45;&gt;slices.target -->
<g id="edge16" class="edge"><title>basic.target&#45;&gt;slices.target</title>
<path fill="none" stroke="#a8a8a8" d="M670.971,-288.055C671.789,-280.346 672.031,-271.027 671.697,-262.364"/>
<polygon fill="#a8a8a8" stroke="#a8a8a8" points="675.182,-262.012 671.005,-252.275 668.198,-262.491 675.182,-262.012"/>
</g>
<!-- paths.target -->
<g id="node11" class="node"><title>paths.target</title>
<ellipse fill="none" stroke="black" cx="368.092" cy="-234" rx="51.9908" ry="18"/>
<text text-anchor="middle" x="368.092" y="-230.3" font-family="Times,serif" font-size="14.00">paths.target</text>
</g>
<!-- basic.target&#45;&gt;paths.target -->
<g id="edge11" class="edge"><title>basic.target&#45;&gt;paths.target</title>
<path fill="none" stroke="green" d="M620.161,-296.969C570.679,-287.069 489.325,-269.409 420.092,-252 417.62,-251.378 415.095,-250.73 412.554,-250.064"/>
<polygon fill="green" stroke="green" points="413.317,-246.645 402.751,-247.435 411.503,-253.406 413.317,-246.645"/>
</g>
<!-- basic.target&#45;&gt;paths.target -->
<g id="edge17" class="edge"><title>basic.target&#45;&gt;paths.target</title>
<path fill="none" stroke="#a8a8a8" d="M624.284,-295.048C578.675,-284.888 503.048,-268.334 438.092,-252 432.355,-250.557 426.334,-248.97 420.319,-247.362"/>
<polygon fill="#a8a8a8" stroke="#a8a8a8" points="420.818,-243.873 410.253,-244.66 419.003,-250.633 420.818,-243.873"/>
</g>
<!-- sockets.target -->
<g id="node12" class="node"><title>sockets.target</title>
<ellipse fill="none" stroke="black" cx="497.092" cy="-234" rx="59.2899" ry="18"/>
<text text-anchor="middle" x="497.092" y="-230.3" font-family="Times,serif" font-size="14.00">sockets.target</text>
</g>
<!-- basic.target&#45;&gt;sockets.target -->
<g id="edge12" class="edge"><title>basic.target&#45;&gt;sockets.target</title>
<path fill="none" stroke="green" d="M630.153,-292.647C602.61,-281.856 564.381,-266.033 535.903,-253.693"/>
<polygon fill="green" stroke="green" points="537.214,-250.446 526.649,-249.654 534.414,-256.862 537.214,-250.446"/>
</g>
<!-- basic.target&#45;&gt;sockets.target -->
<g id="edge18" class="edge"><title>basic.target&#45;&gt;sockets.target</title>
<path fill="none" stroke="#a8a8a8" d="M636.644,-290.834C611.135,-279.587 573.42,-263.827 543.571,-251.918"/>
<polygon fill="#a8a8a8" stroke="#a8a8a8" points="544.768,-248.628 534.182,-248.197 542.189,-255.135 544.768,-248.628"/>
</g>
<!-- sysinit.target -->
<g id="node13" class="node"><title>sysinit.target</title>
<ellipse fill="none" stroke="black" cx="928.092" cy="-234" rx="55.7903" ry="18"/>
<text text-anchor="middle" x="928.092" y="-230.3" font-family="Times,serif" font-size="14.00">sysinit.target</text>
</g>
<!-- basic.target&#45;&gt;sysinit.target -->
<g id="edge13" class="edge"><title>basic.target&#45;&gt;sysinit.target</title>
<path fill="none" stroke="green" d="M702.792,-293.597C747.805,-281.067 823.183,-260.984 874.288,-247.891"/>
<polygon fill="green" stroke="green" points="875.345,-251.233 884.169,-245.37 873.614,-244.451 875.345,-251.233"/>
</g>
<!-- basic.target&#45;&gt;sysinit.target -->
<g id="edge14" class="edge"><title>basic.target&#45;&gt;sysinit.target</title>
<path fill="none" stroke="black" d="M706.506,-295.267C753.26,-283.423 829.069,-263.313 878.812,-249.609"/>
<polygon fill="black" stroke="black" points="879.999,-252.912 888.704,-246.872 878.133,-246.165 879.999,-252.912"/>
</g>
<!-- timers.target -->
<g id="node14" class="node"><title>timers.target</title>
<ellipse fill="none" stroke="black" cx="448.092" cy="-162" rx="55.7903" ry="18"/>
<text text-anchor="middle" x="448.092" y="-158.3" font-family="Times,serif" font-size="14.00">timers.target</text>
</g>
<!-- basic.target&#45;&gt;timers.target -->
<g id="edge15" class="edge"><title>basic.target&#45;&gt;timers.target</title>
<path fill="none" stroke="#a8a8a8" d="M646.156,-289.243C633.766,-278.828 617.302,-264.789 603.092,-252 585.8,-236.437 584.4,-228.979 565.092,-216 542.989,-201.141 516.043,-188.61 493.584,-179.47"/>
<polygon fill="#a8a8a8" stroke="#a8a8a8" points="494.846,-176.205 484.26,-175.763 492.26,-182.71 494.846,-176.205"/>
</g>
<!-- paths.target&#45;&gt;shutdown.target -->
<g id="edge56" class="edge"><title>paths.target&#45;&gt;shutdown.target</title>
<path fill="none" stroke="red" d="M365.018,-215.881C359.997,-181.71 354.628,-105.462 399.092,-72 438.844,-42.085 757.911,-26.9806 907.367,-21.4898"/>
<polygon fill="red" stroke="red" points="907.528,-24.9864 917.395,-21.1265 907.275,-17.991 907.528,-24.9864"/>
</g>
<!-- sockets.target&#45;&gt;shutdown.target -->
<g id="edge70" class="edge"><title>sockets.target&#45;&gt;shutdown.target</title>
<path fill="none" stroke="red" d="M458.874,-220.256C429.271,-209.519 391.866,-193.755 383.092,-180 340.088,-112.582 472.246,-73.5425 476.092,-72 552.542,-41.3427 785.562,-27.2696 907.647,-21.8556"/>
<polygon fill="red" stroke="red" points="907.836,-25.3508 917.675,-21.4194 907.532,-18.3574 907.836,-25.3508"/>
</g>
<!-- sysinit.target&#45;&gt;shutdown.target -->
<g id="edge28" class="edge"><title>sysinit.target&#45;&gt;shutdown.target</title>
<path fill="none" stroke="red" d="M981.841,-228.752C1045.06,-222.509 1144.31,-208.382 1167.09,-180 1177.11,-167.522 1177.22,-156.384 1167.09,-144 1115.99,-81.5261 1041.93,-169.015 989.092,-108 974.646,-91.3179 974.742,-65.6071 977.662,-46.1014"/>
<polygon fill="red" stroke="red" points="981.153,-46.465 979.5,-36 974.266,-45.2118 981.153,-46.465"/>
</g>
<!-- swap.target -->
<g id="node15" class="node"><title>swap.target</title>
<ellipse fill="none" stroke="black" cx="649.092" cy="-162" rx="51.1914" ry="18"/>
<text text-anchor="middle" x="649.092" y="-158.3" font-family="Times,serif" font-size="14.00">swap.target</text>
</g>
<!-- sysinit.target&#45;&gt;swap.target -->
<g id="edge20" class="edge"><title>sysinit.target&#45;&gt;swap.target</title>
<path fill="none" stroke="green" d="M881.823,-223.884C835.453,-213.671 762.522,-196.392 700.092,-180 697.795,-179.397 695.451,-178.772 693.09,-178.134"/>
<polygon fill="green" stroke="green" points="693.944,-174.739 683.373,-175.457 692.084,-181.487 693.944,-174.739"/>
</g>
<!-- sysinit.target&#45;&gt;swap.target -->
<g id="edge26" class="edge"><title>sysinit.target&#45;&gt;swap.target</title>
<path fill="none" stroke="#a8a8a8" d="M886.701,-221.85C844.213,-211.475 776.549,-195.349 718.092,-180 712.457,-178.52 706.54,-176.912 700.625,-175.294"/>
<polygon fill="#a8a8a8" stroke="#a8a8a8" points="701.291,-171.847 690.721,-172.582 699.442,-178.599 701.291,-171.847"/>
</g>
<!-- local&#45;fs.target -->
<g id="node16" class="node"><title>local&#45;fs.target</title>
<ellipse fill="none" stroke="black" cx="778.092" cy="-162" rx="59.5901" ry="18"/>
<text text-anchor="middle" x="778.092" y="-158.3" font-family="Times,serif" font-size="14.00">local&#45;fs.target</text>
</g>
<!-- sysinit.target&#45;&gt;local&#45;fs.target -->
<g id="edge21" class="edge"><title>sysinit.target&#45;&gt;local&#45;fs.target</title>
<path fill="none" stroke="green" d="M894.091,-219.669C870.257,-209.233 838.578,-194.56 814.289,-182.76"/>
<polygon fill="green" stroke="green" points="815.562,-179.486 805.042,-178.229 812.482,-185.772 815.562,-179.486"/>
</g>
<!-- sysinit.target&#45;&gt;local&#45;fs.target -->
<g id="edge24" class="edge"><title>sysinit.target&#45;&gt;local&#45;fs.target</title>
<path fill="none" stroke="#a8a8a8" d="M901.571,-217.983C879.534,-207.071 847.9,-192.261 822.112,-180.76"/>
<polygon fill="#a8a8a8" stroke="#a8a8a8" points="823.466,-177.532 812.905,-176.687 820.634,-183.934 823.466,-177.532"/>
</g>
<!-- emergency.target -->
<g id="node17" class="node"><title>emergency.target</title>
<ellipse fill="none" stroke="black" cx="928.092" cy="-162" rx="72.2875" ry="18"/>
<text text-anchor="middle" x="928.092" y="-158.3" font-family="Times,serif" font-size="14.00">emergency.target</text>
</g>
<!-- sysinit.target&#45;&gt;emergency.target -->
<g id="edge22" class="edge"><title>sysinit.target&#45;&gt;emergency.target</title>
<path fill="none" stroke="green" d="M922.214,-216.055C921.396,-208.346 921.154,-199.027 921.487,-190.364"/>
<polygon fill="green" stroke="green" points="924.987,-190.491 922.179,-180.275 918.003,-190.012 924.987,-190.491"/>
</g>
<!-- sysinit.target&#45;&gt;emergency.target -->
<g id="edge27" class="edge"><title>sysinit.target&#45;&gt;emergency.target</title>
<path fill="none" stroke="red" d="M933.971,-216.055C934.789,-208.346 935.031,-199.027 934.697,-190.364"/>
<polygon fill="red" stroke="red" points="938.182,-190.012 934.005,-180.275 931.198,-190.491 938.182,-190.012"/>
</g>
<!-- cryptsetup.target -->
<g id="node18" class="node"><title>cryptsetup.target</title>
<ellipse fill="none" stroke="black" cx="1088.09" cy="-162" rx="69.5877" ry="18"/>
<text text-anchor="middle" x="1088.09" y="-158.3" font-family="Times,serif" font-size="14.00">cryptsetup.target</text>
</g>
<!-- sysinit.target&#45;&gt;cryptsetup.target -->
<g id="edge23" class="edge"><title>sysinit.target&#45;&gt;cryptsetup.target</title>
<path fill="none" stroke="green" d="M956.019,-218.326C979.401,-207.495 1013.11,-192.691 1040.67,-181.122"/>
<polygon fill="green" stroke="green" points="1042.25,-184.255 1050.14,-177.177 1039.56,-177.794 1042.25,-184.255"/>
</g>
<!-- sysinit.target&#45;&gt;cryptsetup.target -->
<g id="edge25" class="edge"><title>sysinit.target&#45;&gt;cryptsetup.target</title>
<path fill="none" stroke="#a8a8a8" d="M963.599,-219.834C989.04,-209.358 1023.16,-194.537 1049.3,-182.656"/>
<polygon fill="#a8a8a8" stroke="#a8a8a8" points="1050.9,-185.771 1058.54,-178.426 1047.99,-179.407 1050.9,-185.771"/>
</g>
<!-- timers.target&#45;&gt;shutdown.target -->
<g id="edge71" class="edge"><title>timers.target&#45;&gt;shutdown.target</title>
<path fill="none" stroke="red" d="M456.218,-143.861C467.115,-122.985 488.563,-88.4704 518.092,-72 582.978,-35.8087 792.162,-24.2831 906.942,-20.6481"/>
<polygon fill="red" stroke="red" points="907.181,-24.1425 917.07,-20.3401 906.968,-17.1458 907.181,-24.1425"/>
</g>
<!-- swap.target&#45;&gt;shutdown.target -->
<g id="edge30" class="edge"><title>swap.target&#45;&gt;shutdown.target</title>
<path fill="none" stroke="red" d="M653.231,-143.93C659.129,-123.455 672.01,-89.687 696.092,-72 729.406,-47.5334 836.589,-32.7654 910.364,-25.2463"/>
<polygon fill="red" stroke="red" points="910.937,-28.7067 920.541,-24.2332 910.243,-21.7411 910.937,-28.7067"/>
</g>
<!-- local&#45;fs.target&#45;&gt;shutdown.target -->
<g id="edge44" class="edge"><title>local&#45;fs.target&#45;&gt;shutdown.target</title>
<path fill="none" stroke="red" d="M746.586,-146.528C731.389,-137.728 714.636,-124.899 706.092,-108 698.873,-93.7213 695.893,-84.3277 706.092,-72 731.295,-41.539 834.672,-28.4311 907.977,-22.8963"/>
<polygon fill="red" stroke="red" points="908.388,-26.3759 918.11,-22.1646 907.884,-19.394 908.388,-26.3759"/>
</g>
<!-- local&#45;fs&#45;pre.target -->
<g id="node26" class="node"><title>local&#45;fs&#45;pre.target</title>
<ellipse fill="none" stroke="black" cx="788.092" cy="-90" rx="73.387" ry="18"/>
<text text-anchor="middle" x="788.092" y="-86.3" font-family="Times,serif" font-size="14.00">local&#45;fs&#45;pre.target</text>
</g>
<!-- local&#45;fs.target&#45;&gt;local&#45;fs&#45;pre.target -->
<g id="edge43" class="edge"><title>local&#45;fs.target&#45;&gt;local&#45;fs&#45;pre.target</title>
<path fill="none" stroke="green" d="M780.564,-143.697C781.666,-135.983 782.99,-126.712 784.219,-118.112"/>
<polygon fill="green" stroke="green" points="787.699,-118.499 785.649,-108.104 780.77,-117.509 787.699,-118.499"/>
</g>
<!-- emergency.target&#45;&gt;shutdown.target -->
<g id="edge57" class="edge"><title>emergency.target&#45;&gt;shutdown.target</title>
<path fill="none" stroke="red" d="M919.361,-144.019C911.085,-125.403 901.504,-95.1118 913.092,-72 919.75,-58.7224 931.487,-47.9206 943.524,-39.616"/>
<polygon fill="red" stroke="red" points="945.741,-42.3521 952.273,-34.0106 941.965,-36.4579 945.741,-42.3521"/>
</g>
<!-- cryptsetup.target&#45;&gt;shutdown.target -->
<g id="edge62" class="edge"><title>cryptsetup.target&#45;&gt;shutdown.target</title>
<path fill="none" stroke="red" d="M1040.5,-148.766C1005.29,-138.642 961.689,-123.462 951.092,-108 937.681,-88.4321 949.787,-62.7291 962.954,-43.9781"/>
<polygon fill="red" stroke="red" points="965.808,-46.0049 968.99,-35.899 960.201,-41.8152 965.808,-46.0049"/>
</g>
<!-- busnames.target -->
<g id="node19" class="node"><title>busnames.target</title>
<ellipse fill="none" stroke="black" cx="1137.09" cy="-90" rx="68.4888" ry="18"/>
<text text-anchor="middle" x="1137.09" y="-86.3" font-family="Times,serif" font-size="14.00">busnames.target</text>
</g>
<!-- busnames.target&#45;&gt;shutdown.target -->
<g id="edge29" class="edge"><title>busnames.target&#45;&gt;shutdown.target</title>
<path fill="none" stroke="red" d="M1104.64,-74.1548C1081.62,-63.6213 1050.52,-49.3931 1025.68,-38.0264"/>
<polygon fill="red" stroke="red" points="1027.04,-34.8016 1016.49,-33.8238 1024.13,-41.167 1027.04,-34.8016"/>
</g>
<!-- nss&#45;user&#45;lookup.target -->
<g id="node20" class="node"><title>nss&#45;user&#45;lookup.target</title>
<ellipse fill="none" stroke="black" cx="1312.09" cy="-90" rx="89.0842" ry="18"/>
<text text-anchor="middle" x="1312.09" y="-86.3" font-family="Times,serif" font-size="14.00">nss&#45;user&#45;lookup.target</text>
</g>
<!-- nss&#45;user&#45;lookup.target&#45;&gt;shutdown.target -->
<g id="edge31" class="edge"><title>nss&#45;user&#45;lookup.target&#45;&gt;shutdown.target</title>
<path fill="none" stroke="red" d="M1253.07,-76.4046C1194.32,-63.8649 1104.54,-44.7061 1045.1,-32.0197"/>
<polygon fill="red" stroke="red" points="1045.61,-28.5497 1035.1,-29.8854 1044.15,-35.3956 1045.61,-28.5497"/>
</g>
<!-- sound.target -->
<g id="node21" class="node"><title>sound.target</title>
<ellipse fill="none" stroke="black" cx="1473.09" cy="-90" rx="53.8905" ry="18"/>
<text text-anchor="middle" x="1473.09" y="-86.3" font-family="Times,serif" font-size="14.00">sound.target</text>
</g>
<!-- sound.target&#45;&gt;shutdown.target -->
<g id="edge32" class="edge"><title>sound.target&#45;&gt;shutdown.target</title>
<path fill="none" stroke="red" d="M1433.97,-77.5351C1426.11,-75.4889 1417.87,-73.5262 1410.09,-72 1287.63,-47.9821 1143.12,-32.709 1057.79,-25.0165"/>
<polygon fill="red" stroke="red" points="1057.96,-21.5173 1047.69,-24.1159 1057.34,-28.4897 1057.96,-21.5173"/>
</g>
<!-- machines.target -->
<g id="node22" class="node"><title>machines.target</title>
<ellipse fill="none" stroke="black" cx="882.092" cy="-378" rx="66.8882" ry="18"/>
<text text-anchor="middle" x="882.092" y="-374.3" font-family="Times,serif" font-size="14.00">machines.target</text>
</g>
<!-- machines.target&#45;&gt;shutdown.target -->
<g id="edge36" class="edge"><title>machines.target&#45;&gt;shutdown.target</title>
<path fill="none" stroke="red" d="M870.829,-360.192C847.853,-327.259 792.213,-254.136 727.092,-216 672.395,-183.968 627.845,-230.16 589.092,-180 579.31,-167.339 582.819,-158.719 589.092,-144 607.21,-101.493 622.782,-92.7024 664.092,-72 740.59,-33.6634 839.015,-22.1642 906.386,-19.1498"/>
<polygon fill="red" stroke="red" points="906.655,-22.642 916.509,-18.7502 906.378,-15.6475 906.655,-22.642"/>
</g>
<!-- machines.target&#45;&gt;basic.target -->
<g id="edge33" class="edge"><title>machines.target&#45;&gt;basic.target</title>
<path fill="none" stroke="green" d="M837.718,-364.405C799.91,-352.77 746.033,-335.436 708.505,-322.862"/>
<polygon fill="green" stroke="green" points="709.454,-319.488 698.86,-319.612 707.219,-326.122 709.454,-319.488"/>
</g>
<!-- machines.target&#45;&gt;basic.target -->
<g id="edge35" class="edge"><title>machines.target&#45;&gt;basic.target</title>
<path fill="none" stroke="black" d="M844.227,-363.003C807.896,-350.755 753.04,-333.061 713.551,-320.855"/>
<polygon fill="black" stroke="black" points="714.451,-317.47 703.864,-317.877 712.394,-324.161 714.451,-317.47"/>
</g>
<!-- rescue.target -->
<g id="node23" class="node"><title>rescue.target</title>
<ellipse fill="none" stroke="black" cx="1023.09" cy="-306" rx="55.7903" ry="18"/>
<text text-anchor="middle" x="1023.09" y="-302.3" font-family="Times,serif" font-size="14.00">rescue.target</text>
</g>
<!-- machines.target&#45;&gt;rescue.target -->
<g id="edge34" class="edge"><title>machines.target&#45;&gt;rescue.target</title>
<path fill="none" stroke="green" d="M907.995,-361.291C928.385,-350.544 957.057,-336.268 980.738,-325.053"/>
<polygon fill="green" stroke="green" points="982.309,-328.182 989.873,-320.764 979.334,-321.846 982.309,-328.182"/>
</g>
<!-- machines.target&#45;&gt;rescue.target -->
<g id="edge37" class="edge"><title>machines.target&#45;&gt;rescue.target</title>
<path fill="none" stroke="red" d="M916.9,-362.496C938.975,-352.194 967.281,-338.235 989.178,-326.894"/>
<polygon fill="red" stroke="red" points="990.892,-329.947 998.132,-322.212 987.649,-323.743 990.892,-329.947"/>
</g>
<!-- rescue.target&#45;&gt;shutdown.target -->
<g id="edge42" class="edge"><title>rescue.target&#45;&gt;shutdown.target</title>
<path fill="none" stroke="red" d="M1056.37,-291.417C1116.51,-264.953 1232.82,-203.824 1185.09,-144 1140.18,-87.6994 1083.44,-152.858 1027.09,-108 1007.66,-92.5272 996.452,-66.0934 990.384,-46.0433"/>
<polygon fill="red" stroke="red" points="993.708,-44.9328 987.663,-36.2321 986.963,-46.8037 993.708,-44.9328"/>
</g>
<!-- rescue.target&#45;&gt;sysinit.target -->
<g id="edge40" class="edge"><title>rescue.target&#45;&gt;sysinit.target</title>
<path fill="none" stroke="green" d="M997.055,-289.983C983.165,-280.602 966.286,-268.34 952.633,-257.776"/>
<polygon fill="green" stroke="green" points="954.628,-254.892 944.605,-251.46 950.299,-260.394 954.628,-254.892"/>
</g>
<!-- rescue.target&#45;&gt;sysinit.target -->
<g id="edge41" class="edge"><title>rescue.target&#45;&gt;sysinit.target</title>
<path fill="none" stroke="black" d="M1006.86,-288.765C994.67,-278.974 977.753,-266.401 962.66,-255.876"/>
<polygon fill="black" stroke="black" points="964.259,-252.728 954.034,-249.952 960.296,-258.499 964.259,-252.728"/>
</g>
<!-- rpcbind.target -->
<g id="node24" class="node"><title>rpcbind.target</title>
<ellipse fill="none" stroke="black" cx="1681.09" cy="-90" rx="59.5901" ry="18"/>
<text text-anchor="middle" x="1681.09" y="-86.3" font-family="Times,serif" font-size="14.00">rpcbind.target</text>
</g>
<!-- rpcbind.target&#45;&gt;shutdown.target -->
<g id="edge38" class="edge"><title>rpcbind.target&#45;&gt;shutdown.target</title>
<path fill="none" stroke="red" d="M1637.07,-77.8163C1627.26,-75.622 1616.86,-73.5296 1607.09,-72 1411.45,-41.3614 1178.26,-27.4752 1060.4,-22.0244"/>
<polygon fill="red" stroke="red" points="1060.54,-18.5273 1050.39,-21.5691 1060.22,-25.52 1060.54,-18.5273"/>
</g>
<!-- time&#45;sync.target -->
<g id="node25" class="node"><title>time&#45;sync.target</title>
<ellipse fill="none" stroke="black" cx="1827.09" cy="-90" rx="68.4888" ry="18"/>
<text text-anchor="middle" x="1827.09" y="-86.3" font-family="Times,serif" font-size="14.00">time&#45;sync.target</text>
</g>
<!-- time&#45;sync.target&#45;&gt;shutdown.target -->
<g id="edge39" class="edge"><title>time&#45;sync.target&#45;&gt;shutdown.target</title>
<path fill="none" stroke="red" d="M1778.82,-77.197C1769.35,-75.2043 1759.44,-73.3479 1750.09,-72 1499.9,-35.9282 1200.06,-24.2152 1061.41,-20.5663"/>
<polygon fill="red" stroke="red" points="1061.39,-17.0648 1051.3,-20.3073 1061.21,-24.0625 1061.39,-17.0648"/>
</g>
<!-- local&#45;fs&#45;pre.target&#45;&gt;shutdown.target -->
<g id="edge72" class="edge"><title>local&#45;fs&#45;pre.target&#45;&gt;shutdown.target</title>
<path fill="none" stroke="red" d="M827.756,-74.8345C859.011,-63.6718 902.714,-48.0637 935.969,-36.1869"/>
<polygon fill="red" stroke="red" points="937.249,-39.4462 945.49,-32.7867 934.895,-32.854 937.249,-39.4462"/>
</g>
<!-- multi&#45;user.target -->
<g id="node27" class="node"><title>multi&#45;user.target</title>
<ellipse fill="none" stroke="black" cx="1148.09" cy="-450" rx="69.5877" ry="18"/>
<text text-anchor="middle" x="1148.09" y="-446.3" font-family="Times,serif" font-size="14.00">multi&#45;user.target</text>
</g>
<!-- multi&#45;user.target&#45;&gt;shutdown.target -->
<g id="edge54" class="edge"><title>multi&#45;user.target&#45;&gt;shutdown.target</title>
<path fill="none" stroke="red" d="M1208.15,-440.821C1321.36,-423.709 1555.09,-379.592 1555.09,-307 1555.09,-307 1555.09,-307 1555.09,-161 1555.09,-120.553 1566.28,-98.9154 1536.09,-72 1501.35,-41.0308 1204.18,-26.6082 1060.83,-21.4042"/>
<polygon fill="red" stroke="red" points="1060.9,-17.9046 1050.78,-21.0454 1060.65,-24.9001 1060.9,-17.9046"/>
</g>
<!-- multi&#45;user.target&#45;&gt;getty.target -->
<g id="edge49" class="edge"><title>multi&#45;user.target&#45;&gt;getty.target</title>
<path fill="none" stroke="green" d="M1146.87,-431.697C1148.22,-423.696 1150.63,-414.02 1153.44,-405.155"/>
<polygon fill="green" stroke="green" points="1156.77,-406.217 1156.74,-395.622 1150.16,-403.928 1156.77,-406.217"/>
</g>
<!-- multi&#45;user.target&#45;&gt;getty.target -->
<g id="edge53" class="edge"><title>multi&#45;user.target&#45;&gt;getty.target</title>
<path fill="none" stroke="#a8a8a8" d="M1158.57,-432.055C1161.51,-424.261 1164.31,-414.822 1166.34,-406.079"/>
<polygon fill="#a8a8a8" stroke="#a8a8a8" points="1169.77,-406.77 1168.32,-396.275 1162.91,-405.385 1169.77,-406.77"/>
</g>
<!-- multi&#45;user.target&#45;&gt;remote&#45;fs.target -->
<g id="edge52" class="edge"><title>multi&#45;user.target&#45;&gt;remote&#45;fs.target</title>
<path fill="none" stroke="#a8a8a8" d="M1212.24,-442.807C1303.93,-433.744 1477.68,-415.781 1625.09,-396 1638.79,-394.162 1653.44,-391.993 1667.38,-389.832"/>
<polygon fill="#a8a8a8" stroke="#a8a8a8" points="1668.05,-393.27 1677.39,-388.264 1666.97,-386.354 1668.05,-393.27"/>
</g>
<!-- multi&#45;user.target&#45;&gt;nfs&#45;client.target -->
<g id="edge46" class="edge"><title>multi&#45;user.target&#45;&gt;nfs&#45;client.target</title>
<path fill="none" stroke="green" d="M1217.11,-447.768C1319.64,-444.675 1505.66,-433.849 1560.09,-396 1606.23,-363.92 1628.84,-298.463 1641.36,-261.659"/>
<polygon fill="green" stroke="green" points="1644.71,-262.684 1644.63,-252.089 1638.08,-260.418 1644.71,-262.684"/>
</g>
<!-- multi&#45;user.target&#45;&gt;nfs&#45;client.target -->
<g id="edge51" class="edge"><title>multi&#45;user.target&#45;&gt;nfs&#45;client.target</title>
<path fill="none" stroke="#a8a8a8" d="M1217.38,-448.073C1324.03,-445.422 1521.69,-435.216 1578.09,-396 1624.03,-364.057 1646.65,-299.022 1653.2,-262.132"/>
<polygon fill="#a8a8a8" stroke="#a8a8a8" points="1656.68,-262.492 1654.68,-252.089 1649.76,-261.473 1656.68,-262.492"/>
</g>
<!-- multi&#45;user.target&#45;&gt;basic.target -->
<g id="edge45" class="edge"><title>multi&#45;user.target&#45;&gt;basic.target</title>
<path fill="none" stroke="green" d="M1079.42,-446.945C1006.92,-442.92 890.635,-431.039 797.092,-396 754.958,-380.217 712.01,-350.792 686.784,-330.107"/>
<polygon fill="green" stroke="green" points="688.828,-327.252 678.934,-323.46 684.304,-332.594 688.828,-327.252"/>
</g>
<!-- multi&#45;user.target&#45;&gt;basic.target -->
<g id="edge50" class="edge"><title>multi&#45;user.target&#45;&gt;basic.target</title>
<path fill="none" stroke="black" d="M1080.11,-446.152C1011.36,-441.447 903.149,-428.984 815.092,-396 771.421,-379.642 726.877,-348.627 697.61,-327.881"/>
<polygon fill="black" stroke="black" points="699.586,-324.991 689.405,-322.061 695.536,-330.701 699.586,-324.991"/>
</g>
<!-- multi&#45;user.target&#45;&gt;machines.target -->
<g id="edge47" class="edge"><title>multi&#45;user.target&#45;&gt;machines.target</title>
<path fill="none" stroke="green" d="M1101.15,-436.647C1055.52,-424.639 986.213,-406.4 937.812,-393.663"/>
<polygon fill="green" stroke="green" points="938.683,-390.273 928.121,-391.113 936.901,-397.043 938.683,-390.273"/>
</g>
<!-- multi&#45;user.target&#45;&gt;rescue.target -->
<g id="edge48" class="edge"><title>multi&#45;user.target&#45;&gt;rescue.target</title>
<path fill="none" stroke="green" d="M1128.98,-432.433C1104.49,-407.662 1062.99,-360.801 1039.73,-331.898"/>
<polygon fill="green" stroke="green" points="1042.36,-329.577 1033.41,-323.902 1036.87,-333.917 1042.36,-329.577"/>
</g>
<!-- multi&#45;user.target&#45;&gt;rescue.target -->
<g id="edge55" class="edge"><title>multi&#45;user.target&#45;&gt;rescue.target</title>
<path fill="none" stroke="red" d="M1137.82,-432.153C1118.32,-406.931 1076.56,-359.261 1049.03,-330.589"/>
<polygon fill="red" stroke="red" points="1051.51,-328.11 1042.02,-323.387 1046.49,-332.993 1051.51,-328.11"/>
</g>
<!-- nss&#45;lookup.target -->
<g id="node28" class="node"><title>nss&#45;lookup.target</title>
<ellipse fill="none" stroke="black" cx="2060.09" cy="-90" rx="71.4873" ry="18"/>
<text text-anchor="middle" x="2060.09" y="-86.3" font-family="Times,serif" font-size="14.00">nss&#45;lookup.target</text>
</g>
<!-- nss&#45;lookup.target&#45;&gt;shutdown.target -->
<g id="edge58" class="edge"><title>nss&#45;lookup.target&#45;&gt;shutdown.target</title>
<path fill="none" stroke="red" d="M2008.59,-77.4653C1997.59,-75.347 1985.99,-73.3742 1975.09,-72 1636.87,-29.359 1229.49,-20.9716 1061.89,-19.3612"/>
<polygon fill="red" stroke="red" points="1061.71,-15.8595 1051.68,-19.2687 1061.65,-22.8593 1061.71,-15.8595"/>
</g>
<!-- bluetooth.target -->
<g id="node29" class="node"><title>bluetooth.target</title>
<ellipse fill="none" stroke="black" cx="2216.09" cy="-90" rx="66.0889" ry="18"/>
<text text-anchor="middle" x="2216.09" y="-86.3" font-family="Times,serif" font-size="14.00">bluetooth.target</text>
</g>
<!-- bluetooth.target&#45;&gt;shutdown.target -->
<g id="edge61" class="edge"><title>bluetooth.target&#45;&gt;shutdown.target</title>
<path fill="none" stroke="red" d="M2169.29,-77.191C2159.69,-75.1466 2149.61,-73.2724 2140.09,-72 1930.61,-43.9869 1284.66,-26.221 1061.15,-20.7799"/>
<polygon fill="red" stroke="red" points="1061.23,-17.2808 1051.14,-20.5377 1061.06,-24.2788 1061.23,-17.2808"/>
</g>
<!-- graphical.target -->
<g id="node30" class="node"><title>graphical.target</title>
<ellipse fill="none" stroke="black" cx="1148.09" cy="-522" rx="65.7887" ry="18"/>
<text text-anchor="middle" x="1148.09" y="-518.3" font-family="Times,serif" font-size="14.00">graphical.target</text>
</g>
<!-- graphical.target&#45;&gt;shutdown.target -->
<g id="edge67" class="edge"><title>graphical.target&#45;&gt;shutdown.target</title>
<path fill="none" stroke="red" d="M1213.48,-519.94C1458.74,-515.112 2310.09,-490.336 2310.09,-379 2310.09,-379 2310.09,-379 2310.09,-161 2310.09,-120.553 2322.01,-98.0721 2291.09,-72 2243.95,-32.2549 1335.91,-21.8001 1061.79,-19.5443"/>
<polygon fill="red" stroke="red" points="1061.56,-16.0424 1051.53,-19.4613 1061.5,-23.0422 1061.56,-16.0424"/>
</g>
<!-- graphical.target&#45;&gt;rescue.target -->
<g id="edge65" class="edge"><title>graphical.target&#45;&gt;rescue.target</title>
<path fill="none" stroke="green" d="M1110.05,-507.32C1092.28,-498.343 1072.53,-485.093 1060.09,-468 1030.61,-427.49 1019.98,-368.553 1018.92,-334.362"/>
<polygon fill="green" stroke="green" points="1022.42,-334.178 1018.9,-324.185 1015.42,-334.191 1022.42,-334.178"/>
</g>
<!-- graphical.target&#45;&gt;rescue.target -->
<g id="edge68" class="edge"><title>graphical.target&#45;&gt;rescue.target</title>
<path fill="none" stroke="red" d="M1122.47,-505.363C1107.54,-496.461 1089.66,-483.891 1078.09,-468 1048.61,-427.49 1037.98,-368.553 1031.43,-334.362"/>
<polygon fill="red" stroke="red" points="1034.79,-333.321 1029.43,-324.185 1027.92,-334.672 1034.79,-333.321"/>
</g>
<!-- graphical.target&#45;&gt;multi&#45;user.target -->
<g id="edge64" class="edge"><title>graphical.target&#45;&gt;multi&#45;user.target</title>
<path fill="none" stroke="green" d="M1142.21,-504.055C1141.4,-496.346 1141.15,-487.027 1141.49,-478.364"/>
<polygon fill="green" stroke="green" points="1144.99,-478.491 1142.18,-468.275 1138,-478.012 1144.99,-478.491"/>
</g>
<!-- graphical.target&#45;&gt;multi&#45;user.target -->
<g id="edge66" class="edge"><title>graphical.target&#45;&gt;multi&#45;user.target</title>
<path fill="none" stroke="black" d="M1153.97,-504.055C1154.79,-496.346 1155.03,-487.027 1154.7,-478.364"/>
<polygon fill="black" stroke="black" points="1158.18,-478.012 1154.01,-468.275 1151.2,-478.491 1158.18,-478.012"/>
</g>
<!-- cryptsetup&#45;pre.target -->
<g id="node31" class="node"><title>cryptsetup&#45;pre.target</title>
<ellipse fill="none" stroke="black" cx="2422.09" cy="-90" rx="83.6854" ry="18"/>
<text text-anchor="middle" x="2422.09" y="-86.3" font-family="Times,serif" font-size="14.00">cryptsetup&#45;pre.target</text>
</g>
<!-- cryptsetup&#45;pre.target&#45;&gt;shutdown.target -->
<g id="edge69" class="edge"><title>cryptsetup&#45;pre.target&#45;&gt;shutdown.target</title>
<path fill="none" stroke="red" d="M2362.41,-77.353C2349.8,-75.256 2336.54,-73.3202 2324.09,-72 1846.54,-21.3595 1268.61,-17.9166 1062.09,-18.49"/>
<polygon fill="red" stroke="red" points="1061.94,-14.9904 1051.95,-18.5223 1061.96,-21.9903 1061.94,-14.9904"/>
</g>
</g>
</svg>
