<?xml version="1.0" encoding="UTF-8" standalone="no"?>
<!DOCTYPE svg PUBLIC "-//W3C//DTD SVG 1.1//EN"
 "http://www.w3.org/Graphics/SVG/1.1/DTD/svg11.dtd">
<!-- Generated by graphviz version 2.30.1 (20171025.2055)
 -->
<!-- Title: systemd Pages: 1 -->
<svg width="949pt" height="188pt"
 viewBox="0.00 0.00 949.00 188.00" xmlns="http://www.w3.org/2000/svg" xmlns:xlink="http://www.w3.org/1999/xlink">
<g id="graph0" class="graph" transform="scale(1 1) rotate(0) translate(4 184)">
<title>systemd</title>
<polygon fill="white" stroke="white" points="-4,5 -4,-184 946,-184 946,5 -4,5"/>
<!-- multi&#45;user.target -->
<g id="node1" class="node"><title>multi&#45;user.target</title>
<ellipse fill="none" stroke="black" cx="369" cy="-162" rx="69.3156" ry="18"/>
<text text-anchor="middle" x="369" y="-158.3" font-family="Times,serif" font-size="14.00">multi&#45;user.target</text>
</g>
<!-- docker.service -->
<g id="node2" class="node"><title>docker.service</title>
<ellipse fill="none" stroke="black" cx="369" cy="-90" rx="61.6163" ry="18"/>
<text text-anchor="middle" x="369" y="-86.3" font-family="Times,serif" font-size="14.00">docker.service</text>
</g>
<!-- multi&#45;user.target&#45;&gt;docker.service -->
<g id="edge1" class="edge"><title>multi&#45;user.target&#45;&gt;docker.service</title>
<path fill="none" stroke="green" d="M363.122,-144.055C362.304,-136.346 362.061,-127.027 362.395,-118.364"/>
<polygon fill="green" stroke="green" points="365.894,-118.491 363.087,-108.275 358.911,-118.012 365.894,-118.491"/>
</g>
<!-- multi&#45;user.target&#45;&gt;docker.service -->
<g id="edge2" class="edge"><title>multi&#45;user.target&#45;&gt;docker.service</title>
<path fill="none" stroke="#a8a8a8" d="M374.878,-144.055C375.696,-136.346 375.939,-127.027 375.605,-118.364"/>
<polygon fill="#a8a8a8" stroke="#a8a8a8" points="379.089,-118.012 374.913,-108.275 372.106,-118.491 379.089,-118.012"/>
</g>
<!-- network&#45;online.target -->
<g id="node4" class="node"><title>network&#45;online.target</title>
<ellipse fill="none" stroke="black" cx="87" cy="-18" rx="87.1385" ry="18"/>
<text text-anchor="middle" x="87" y="-14.3" font-family="Times,serif" font-size="14.00">network&#45;online.target</text>
</g>
<!-- docker.service&#45;&gt;network&#45;online.target -->
<g id="edge5" class="edge"><title>docker.service&#45;&gt;network&#45;online.target</title>
<path fill="none" stroke="green" d="M323.692,-77.7533C276.74,-66.0987 202.986,-47.7908 150.29,-34.7102"/>
<polygon fill="green" stroke="green" points="150.925,-31.2617 140.376,-32.2494 149.238,-38.0555 150.925,-31.2617"/>
</g>
<!-- system.slice -->
<g id="node5" class="node"><title>system.slice</title>
<ellipse fill="none" stroke="black" cx="246" cy="-18" rx="53.4184" ry="18"/>
<text text-anchor="middle" x="246" y="-14.3" font-family="Times,serif" font-size="14.00">system.slice</text>
</g>
<!-- docker.service&#45;&gt;system.slice -->
<g id="edge6" class="edge"><title>docker.service&#45;&gt;system.slice</title>
<path fill="none" stroke="green" d="M342.007,-73.6382C324.059,-63.4237 300.313,-49.9099 280.928,-38.8777"/>
<polygon fill="green" stroke="green" points="282.509,-35.7502 272.086,-33.8459 279.046,-41.834 282.509,-35.7502"/>
</g>
<!-- basic.target -->
<g id="node6" class="node"><title>basic.target</title>
<ellipse fill="none" stroke="black" cx="369" cy="-18" rx="51.0191" ry="18"/>
<text text-anchor="middle" x="369" y="-14.3" font-family="Times,serif" font-size="14.00">basic.target</text>
</g>
<!-- docker.service&#45;&gt;basic.target -->
<g id="edge7" class="edge"><title>docker.service&#45;&gt;basic.target</title>
<path fill="none" stroke="green" d="M369,-71.6966C369,-63.9827 369,-54.7125 369,-46.1124"/>
<polygon fill="green" stroke="green" points="372.5,-46.1043 369,-36.1043 365.5,-46.1044 372.5,-46.1043"/>
</g>
<!-- systemd&#45;journald.socket -->
<g id="node7" class="node"><title>systemd&#45;journald.socket</title>
<ellipse fill="none" stroke="black" cx="535" cy="-18" rx="96.2631" ry="18"/>
<text text-anchor="middle" x="535" y="-14.3" font-family="Times,serif" font-size="14.00">systemd&#45;journald.socket</text>
</g>
<!-- docker.service&#45;&gt;systemd&#45;journald.socket -->
<g id="edge8" class="edge"><title>docker.service&#45;&gt;systemd&#45;journald.socket</title>
<path fill="none" stroke="green" d="M402.593,-74.8345C427.254,-64.4352 461.064,-50.1778 488.346,-38.6734"/>
<polygon fill="green" stroke="green" points="489.844,-41.8404 497.698,-34.7298 487.124,-35.3904 489.844,-41.8404"/>
</g>
<!-- firewalld.service -->
<g id="node8" class="node"><title>firewalld.service</title>
<ellipse fill="none" stroke="black" cx="719" cy="-18" rx="69.3156" ry="18"/>
<text text-anchor="middle" x="719" y="-14.3" font-family="Times,serif" font-size="14.00">firewalld.service</text>
</g>
<!-- docker.service&#45;&gt;firewalld.service -->
<g id="edge9" class="edge"><title>docker.service&#45;&gt;firewalld.service</title>
<path fill="none" stroke="green" d="M419.004,-79.5128C473.427,-69.1188 562.986,-51.8158 640,-36 645.722,-34.8248 651.673,-33.5822 657.627,-32.3251"/>
<polygon fill="green" stroke="green" points="658.555,-35.7062 667.61,-30.2052 657.101,-28.8589 658.555,-35.7062"/>
</g>
<!-- docker.service&#45;&gt;basic.target -->
<g id="edge10" class="edge"><title>docker.service&#45;&gt;basic.target</title>
<path fill="none" stroke="black" d="M369,-71.6966C369,-63.9827 369,-54.7125 369,-46.1124"/>
<polygon fill="black" stroke="black" points="372.5,-46.1043 369,-36.1043 365.5,-46.1044 372.5,-46.1043"/>
</g>
<!-- docker.service&#45;&gt;network&#45;online.target -->
<g id="edge11" class="edge"><title>docker.service&#45;&gt;network&#45;online.target</title>
<path fill="none" stroke="#a8a8a8" d="M323.692,-77.7533C276.74,-66.0987 202.986,-47.7908 150.29,-34.7102"/>
<polygon fill="#a8a8a8" stroke="#a8a8a8" points="150.925,-31.2617 140.376,-32.2494 149.238,-38.0555 150.925,-31.2617"/>
</g>
<!-- docker.service&#45;&gt;system.slice -->
<g id="edge12" class="edge"><title>docker.service&#45;&gt;system.slice</title>
<path fill="none" stroke="#a8a8a8" d="M342.007,-73.6382C324.059,-63.4237 300.313,-49.9099 280.928,-38.8777"/>
<polygon fill="#a8a8a8" stroke="#a8a8a8" points="282.509,-35.7502 272.086,-33.8459 279.046,-41.834 282.509,-35.7502"/>
</g>
<!-- shutdown.target -->
<g id="node3" class="node"><title>shutdown.target</title>
<ellipse fill="none" stroke="black" cx="874" cy="-18" rx="67.3907" ry="18"/>
<text text-anchor="middle" x="874" y="-14.3" font-family="Times,serif" font-size="14.00">shutdown.target</text>
</g>
<!-- docker.service&#45;&gt;shutdown.target -->
<g id="edge13" class="edge"><title>docker.service&#45;&gt;shutdown.target</title>
<path fill="none" stroke="red" d="M424.853,-82.5256C504.241,-74.0527 652.818,-57.6923 779,-36 788.411,-34.3822 798.409,-32.3839 808.341,-30.3327"/>
<polygon fill="red" stroke="red" points="809.149,-33.7397 818.226,-28.2759 807.723,-26.8864 809.149,-33.7397"/>
</g>
<!-- shutdown.target&#45;&gt;docker.service -->
<g id="edge3" class="edge"><title>shutdown.target&#45;&gt;docker.service</title>
<path fill="none" stroke="green" d="M825.256,-30.487C815.908,-32.484 806.175,-34.4228 797,-36 670.429,-57.7592 521.325,-74.1536 436.706,-82.6037"/>
<polygon fill="green" stroke="green" points="436.318,-79.125 426.712,-83.5947 437.008,-86.0908 436.318,-79.125"/>
</g>
<!-- shutdown.target&#45;&gt;docker.service -->
<g id="edge4" class="edge"><title>shutdown.target&#45;&gt;docker.service</title>
<path fill="none" stroke="red" d="M833.577,-32.4816C827.388,-33.7541 821.071,-34.9562 815,-36 682.977,-58.6965 526.437,-75.556 437.992,-83.6513"/>
<polygon fill="red" stroke="red" points="437.456,-80.1853 427.812,-84.5715 438.087,-87.1569 437.456,-80.1853"/>
</g>
</g>
</svg>
