<?xml version="1.0" encoding="UTF-8" standalone="no"?>
<!DOCTYPE svg PUBLIC "-//W3C//DTD SVG 1.1//EN"
 "http://www.w3.org/Graphics/SVG/1.1/DTD/svg11.dtd">
<!-- Generated by graphviz version 2.30.1 (20171025.2055)
 -->
<!-- Title: systemd Pages: 1 -->
<svg width="1803pt" height="116pt"
 viewBox="0.00 0.00 1803.00 116.00" xmlns="http://www.w3.org/2000/svg" xmlns:xlink="http://www.w3.org/1999/xlink">
<g id="graph0" class="graph" transform="scale(1 1) rotate(0) translate(4 112)">
<title>systemd</title>
<polygon fill="white" stroke="white" points="-4,5 -4,-112 1800,-112 1800,5 -4,5"/>
<!-- graphical.target -->
<g id="node1" class="node"><title>graphical.target</title>
<ellipse fill="none" stroke="black" cx="498" cy="-90" rx="65.4659" ry="18"/>
<text text-anchor="middle" x="498" y="-86.3" font-family="Times,serif" font-size="14.00">graphical.target</text>
</g>
<!-- multi&#45;user.target -->
<g id="node2" class="node"><title>multi&#45;user.target</title>
<ellipse fill="none" stroke="black" cx="69" cy="-18" rx="69.3156" ry="18"/>
<text text-anchor="middle" x="69" y="-14.3" font-family="Times,serif" font-size="14.00">multi&#45;user.target</text>
</g>
<!-- graphical.target&#45;&gt;multi&#45;user.target -->
<g id="edge1" class="edge"><title>graphical.target&#45;&gt;multi&#45;user.target</title>
<path fill="none" stroke="green" d="M440.354,-81.4615C370.653,-72.0779 249.882,-54.9584 147,-36 141.237,-34.938 135.25,-33.7631 129.27,-32.5416"/>
<polygon fill="green" stroke="green" points="129.758,-29.0681 119.254,-30.4534 128.329,-35.9207 129.758,-29.0681"/>
</g>
<!-- rescue.target -->
<g id="node3" class="node"><title>rescue.target</title>
<ellipse fill="none" stroke="black" cx="212" cy="-18" rx="55.3436" ry="18"/>
<text text-anchor="middle" x="212" y="-14.3" font-family="Times,serif" font-size="14.00">rescue.target</text>
</g>
<!-- graphical.target&#45;&gt;rescue.target -->
<g id="edge2" class="edge"><title>graphical.target&#45;&gt;rescue.target</title>
<path fill="none" stroke="green" d="M449.645,-77.7037C404.825,-67.162 336.322,-50.869 277,-36 272.617,-34.9015 268.073,-33.7463 263.516,-32.5766"/>
<polygon fill="green" stroke="green" points="264.136,-29.1218 253.578,-30.0092 262.385,-35.8993 264.136,-29.1218"/>
</g>
<!-- network.service -->
<g id="node4" class="node"><title>network.service</title>
<ellipse fill="none" stroke="black" cx="353" cy="-18" rx="66.4165" ry="18"/>
<text text-anchor="middle" x="353" y="-14.3" font-family="Times,serif" font-size="14.00">network.service</text>
</g>
<!-- graphical.target&#45;&gt;network.service -->
<g id="edge3" class="edge"><title>graphical.target&#45;&gt;network.service</title>
<path fill="none" stroke="green" d="M466.894,-73.9832C445.391,-63.6027 416.583,-49.6954 393.321,-38.4651"/>
<polygon fill="green" stroke="green" points="394.582,-35.1875 384.055,-33.9919 391.539,-41.4914 394.582,-35.1875"/>
</g>
<!-- rescue.service -->
<g id="node5" class="node"><title>rescue.service</title>
<ellipse fill="none" stroke="black" cx="498" cy="-18" rx="60.1672" ry="18"/>
<text text-anchor="middle" x="498" y="-14.3" font-family="Times,serif" font-size="14.00">rescue.service</text>
</g>
<!-- graphical.target&#45;&gt;rescue.service -->
<g id="edge4" class="edge"><title>graphical.target&#45;&gt;rescue.service</title>
<path fill="none" stroke="green" d="M498,-71.6966C498,-63.9827 498,-54.7125 498,-46.1124"/>
<polygon fill="green" stroke="green" points="501.5,-46.1043 498,-36.1043 494.5,-46.1044 501.5,-46.1043"/>
</g>
<!-- display&#45;manager.service -->
<g id="node6" class="node"><title>display&#45;manager.service</title>
<ellipse fill="none" stroke="black" cx="673" cy="-18" rx="96.2631" ry="18"/>
<text text-anchor="middle" x="673" y="-14.3" font-family="Times,serif" font-size="14.00">display&#45;manager.service</text>
</g>
<!-- graphical.target&#45;&gt;display&#45;manager.service -->
<g id="edge5" class="edge"><title>graphical.target&#45;&gt;display&#45;manager.service</title>
<path fill="none" stroke="green" d="M533.414,-74.8345C559.615,-64.3539 595.613,-49.9547 624.49,-38.4041"/>
<polygon fill="green" stroke="green" points="626,-41.5696 633.985,-34.6059 623.401,-35.0702 626,-41.5696"/>
</g>
<!-- graphical.target&#45;&gt;multi&#45;user.target -->
<g id="edge6" class="edge"><title>graphical.target&#45;&gt;multi&#45;user.target</title>
<path fill="none" stroke="black" d="M440.354,-81.4615C370.653,-72.0779 249.882,-54.9584 147,-36 141.237,-34.938 135.25,-33.7631 129.27,-32.5416"/>
<polygon fill="black" stroke="black" points="129.758,-29.0681 119.254,-30.4534 128.329,-35.9207 129.758,-29.0681"/>
</g>
<!-- systemd&#45;readahead&#45;replay.service -->
<g id="node7" class="node"><title>systemd&#45;readahead&#45;replay.service</title>
<ellipse fill="none" stroke="black" cx="918" cy="-18" rx="130.457" ry="18"/>
<text text-anchor="middle" x="918" y="-14.3" font-family="Times,serif" font-size="14.00">systemd&#45;readahead&#45;replay.service</text>
</g>
<!-- graphical.target&#45;&gt;systemd&#45;readahead&#45;replay.service -->
<g id="edge7" class="edge"><title>graphical.target&#45;&gt;systemd&#45;readahead&#45;replay.service</title>
<path fill="none" stroke="#a8a8a8" d="M552.477,-79.9205C622.328,-68.2786 744.408,-47.932 828.12,-33.9801"/>
<polygon fill="#a8a8a8" stroke="#a8a8a8" points="828.844,-37.4078 838.132,-32.3113 827.693,-30.503 828.844,-37.4078"/>
</g>
<!-- systemd&#45;readahead&#45;collect.service -->
<g id="node8" class="node"><title>systemd&#45;readahead&#45;collect.service</title>
<ellipse fill="none" stroke="black" cx="1199" cy="-18" rx="131.408" ry="18"/>
<text text-anchor="middle" x="1199" y="-14.3" font-family="Times,serif" font-size="14.00">systemd&#45;readahead&#45;collect.service</text>
</g>
<!-- graphical.target&#45;&gt;systemd&#45;readahead&#45;collect.service -->
<g id="edge8" class="edge"><title>graphical.target&#45;&gt;systemd&#45;readahead&#45;collect.service</title>
<path fill="none" stroke="#a8a8a8" d="M559.26,-83.6889C662.166,-74.6557 876.229,-55.3874 1057,-36 1069.17,-34.6943 1081.93,-33.2607 1094.59,-31.7971"/>
<polygon fill="#a8a8a8" stroke="#a8a8a8" points="1095.18,-35.2521 1104.7,-30.6187 1094.37,-28.2991 1095.18,-35.2521"/>
</g>
<!-- graphical.target&#45;&gt;network.service -->
<g id="edge9" class="edge"><title>graphical.target&#45;&gt;network.service</title>
<path fill="none" stroke="#a8a8a8" d="M466.894,-73.9832C445.391,-63.6027 416.583,-49.6954 393.321,-38.4651"/>
<polygon fill="#a8a8a8" stroke="#a8a8a8" points="394.582,-35.1875 384.055,-33.9919 391.539,-41.4914 394.582,-35.1875"/>
</g>
<!-- graphical.target&#45;&gt;display&#45;manager.service -->
<g id="edge10" class="edge"><title>graphical.target&#45;&gt;display&#45;manager.service</title>
<path fill="none" stroke="#a8a8a8" d="M533.414,-74.8345C559.615,-64.3539 595.613,-49.9547 624.49,-38.4041"/>
<polygon fill="#a8a8a8" stroke="#a8a8a8" points="626,-41.5696 633.985,-34.6059 623.401,-35.0702 626,-41.5696"/>
</g>
<!-- systemd&#45;update&#45;utmp&#45;runlevel.service -->
<g id="node9" class="node"><title>systemd&#45;update&#45;utmp&#45;runlevel.service</title>
<ellipse fill="none" stroke="black" cx="1496" cy="-18" rx="146.331" ry="18"/>
<text text-anchor="middle" x="1496" y="-14.3" font-family="Times,serif" font-size="14.00">systemd&#45;update&#45;utmp&#45;runlevel.service</text>
</g>
<!-- graphical.target&#45;&gt;systemd&#45;update&#45;utmp&#45;runlevel.service -->
<g id="edge11" class="edge"><title>graphical.target&#45;&gt;systemd&#45;update&#45;utmp&#45;runlevel.service</title>
<path fill="none" stroke="#a8a8a8" d="M561.902,-85.9546C702.516,-79.038 1049.3,-60.8007 1339,-36 1353.2,-34.784 1368.12,-33.3606 1382.86,-31.8642"/>
<polygon fill="#a8a8a8" stroke="#a8a8a8" points="1383.44,-35.3229 1393.03,-30.8182 1382.73,-28.3596 1383.44,-35.3229"/>
</g>
<!-- graphical.target&#45;&gt;rescue.target -->
<g id="edge12" class="edge"><title>graphical.target&#45;&gt;rescue.target</title>
<path fill="none" stroke="red" d="M449.645,-77.7037C404.825,-67.162 336.322,-50.869 277,-36 272.617,-34.9015 268.073,-33.7463 263.516,-32.5766"/>
<polygon fill="red" stroke="red" points="264.136,-29.1218 253.578,-30.0092 262.385,-35.8993 264.136,-29.1218"/>
</g>
<!-- graphical.target&#45;&gt;rescue.service -->
<g id="edge13" class="edge"><title>graphical.target&#45;&gt;rescue.service</title>
<path fill="none" stroke="red" d="M498,-71.6966C498,-63.9827 498,-54.7125 498,-46.1124"/>
<polygon fill="red" stroke="red" points="501.5,-46.1043 498,-36.1043 494.5,-46.1044 501.5,-46.1043"/>
</g>
<!-- shutdown.target -->
<g id="node10" class="node"><title>shutdown.target</title>
<ellipse fill="none" stroke="black" cx="1728" cy="-18" rx="67.3907" ry="18"/>
<text text-anchor="middle" x="1728" y="-14.3" font-family="Times,serif" font-size="14.00">shutdown.target</text>
</g>
<!-- graphical.target&#45;&gt;shutdown.target -->
<g id="edge14" class="edge"><title>graphical.target&#45;&gt;shutdown.target</title>
<path fill="none" stroke="red" d="M563.017,-87.4787C773.999,-82.3112 1438.19,-64.1711 1651,-36 1657.32,-35.1629 1663.9,-34.0674 1670.42,-32.8352"/>
<polygon fill="red" stroke="red" points="1671.46,-36.1962 1680.58,-30.804 1670.09,-29.3319 1671.46,-36.1962"/>
</g>
</g>
</svg>
