<?xml version="1.0" encoding="UTF-8" standalone="no"?>
<!DOCTYPE svg PUBLIC "-//W3C//DTD SVG 1.1//EN"
 "http://www.w3.org/Graphics/SVG/1.1/DTD/svg11.dtd">
<!-- Generated by graphviz version 2.30.1 (20171025.2055)
 -->
<!-- Title: systemd Pages: 1 -->
<svg width="1251pt" height="116pt"
 viewBox="0.00 0.00 1251.00 116.00" xmlns="http://www.w3.org/2000/svg" xmlns:xlink="http://www.w3.org/1999/xlink">
<g id="graph0" class="graph" transform="scale(1 1) rotate(0) translate(4 112)">
<title>systemd</title>
<polygon fill="white" stroke="white" points="-4,5 -4,-112 1248,-112 1248,5 -4,5"/>
<!-- systemd&#45;update&#45;utmp&#45;runlevel.service -->
<g id="node1" class="node"><title>systemd&#45;update&#45;utmp&#45;runlevel.service</title>
<ellipse fill="none" stroke="black" cx="146" cy="-90" rx="146.331" ry="18"/>
<text text-anchor="middle" x="146" y="-86.3" font-family="Times,serif" font-size="14.00">systemd&#45;update&#45;utmp&#45;runlevel.service</text>
</g>
<!-- graphical.target -->
<g id="node2" class="node"><title>graphical.target</title>
<ellipse fill="none" stroke="black" cx="732" cy="-18" rx="65.4659" ry="18"/>
<text text-anchor="middle" x="732" y="-14.3" font-family="Times,serif" font-size="14.00">graphical.target</text>
</g>
<!-- systemd&#45;update&#45;utmp&#45;runlevel.service&#45;&gt;graphical.target -->
<g id="edge1" class="edge"><title>systemd&#45;update&#45;utmp&#45;runlevel.service&#45;&gt;graphical.target</title>
<path fill="none" stroke="green" d="M247.071,-76.9267C366.051,-62.7141 560.426,-39.4952 663.232,-27.2146"/>
<polygon fill="green" stroke="green" points="663.677,-30.6864 673.192,-26.0249 662.847,-23.7358 663.677,-30.6864"/>
</g>
<!-- systemd&#45;readahead&#45;done.timer -->
<g id="node3" class="node"><title>systemd&#45;readahead&#45;done.timer</title>
<ellipse fill="none" stroke="black" cx="431" cy="-90" rx="120.359" ry="18"/>
<text text-anchor="middle" x="431" y="-86.3" font-family="Times,serif" font-size="14.00">systemd&#45;readahead&#45;done.timer</text>
</g>
<!-- systemd&#45;readahead&#45;done.timer&#45;&gt;graphical.target -->
<g id="edge2" class="edge"><title>systemd&#45;readahead&#45;done.timer&#45;&gt;graphical.target</title>
<path fill="none" stroke="green" d="M493.002,-74.5808C545.922,-62.2739 621.484,-44.7015 673.402,-32.6275"/>
<polygon fill="green" stroke="green" points="674.509,-35.9635 683.456,-30.2892 672.923,-29.1454 674.509,-35.9635"/>
</g>
<!-- rescue.service -->
<g id="node4" class="node"><title>rescue.service</title>
<ellipse fill="none" stroke="black" cx="630" cy="-90" rx="60.1672" ry="18"/>
<text text-anchor="middle" x="630" y="-86.3" font-family="Times,serif" font-size="14.00">rescue.service</text>
</g>
<!-- rescue.service&#45;&gt;graphical.target -->
<g id="edge3" class="edge"><title>rescue.service&#45;&gt;graphical.target</title>
<path fill="none" stroke="red" d="M652.891,-73.2906C666.835,-63.721 684.857,-51.3533 700.176,-40.8398"/>
<polygon fill="red" stroke="red" points="702.568,-43.4434 708.833,-34.8991 698.607,-37.6718 702.568,-43.4434"/>
</g>
<!-- systemd&#45;readahead&#45;done.service -->
<g id="node5" class="node"><title>systemd&#45;readahead&#45;done.service</title>
<ellipse fill="none" stroke="black" cx="835" cy="-90" rx="126.133" ry="18"/>
<text text-anchor="middle" x="835" y="-86.3" font-family="Times,serif" font-size="14.00">systemd&#45;readahead&#45;done.service</text>
</g>
<!-- systemd&#45;readahead&#45;done.service&#45;&gt;graphical.target -->
<g id="edge4" class="edge"><title>systemd&#45;readahead&#45;done.service&#45;&gt;graphical.target</title>
<path fill="none" stroke="green" d="M810.329,-72.2333C796.399,-62.7661 778.835,-50.8297 763.871,-40.6602"/>
<polygon fill="green" stroke="green" points="765.647,-37.6349 755.409,-34.9087 761.712,-43.4244 765.647,-37.6349"/>
</g>
<!-- rescue.target -->
<g id="node6" class="node"><title>rescue.target</title>
<ellipse fill="none" stroke="black" cx="1035" cy="-90" rx="55.3436" ry="18"/>
<text text-anchor="middle" x="1035" y="-86.3" font-family="Times,serif" font-size="14.00">rescue.target</text>
</g>
<!-- rescue.target&#45;&gt;graphical.target -->
<g id="edge5" class="edge"><title>rescue.target&#45;&gt;graphical.target</title>
<path fill="none" stroke="red" d="M993.447,-77.8899C985.668,-75.8789 977.596,-73.8384 970,-72 909.694,-57.4043 840.424,-42.1478 792.224,-31.772"/>
<polygon fill="red" stroke="red" points="792.782,-28.312 782.269,-29.634 791.312,-35.1559 792.782,-28.312"/>
</g>
<!-- shutdown.target -->
<g id="node7" class="node"><title>shutdown.target</title>
<ellipse fill="none" stroke="black" cx="1176" cy="-90" rx="67.3907" ry="18"/>
<text text-anchor="middle" x="1176" y="-86.3" font-family="Times,serif" font-size="14.00">shutdown.target</text>
</g>
<!-- shutdown.target&#45;&gt;graphical.target -->
<g id="edge6" class="edge"><title>shutdown.target&#45;&gt;graphical.target</title>
<path fill="none" stroke="red" d="M1126.82,-77.5742C1117.6,-75.5939 1108.02,-73.6453 1099,-72 995.416,-53.1125 874.386,-36.7254 800.484,-27.3533"/>
<polygon fill="red" stroke="red" points="800.735,-23.8573 790.376,-26.0779 799.859,-30.8022 800.735,-23.8573"/>
</g>
</g>
</svg>
