<?xml version="1.0" encoding="UTF-8" standalone="no"?>
<!DOCTYPE svg PUBLIC "-//W3C//DTD SVG 1.1//EN"
 "http://www.w3.org/Graphics/SVG/1.1/DTD/svg11.dtd">
<!-- Generated by graphviz version 2.30.1 (20171025.2055)
 -->
<!-- Title: systemd Pages: 1 -->
<svg width="2576pt" height="548pt"
 viewBox="0.00 0.00 2575.76 548.00" xmlns="http://www.w3.org/2000/svg" xmlns:xlink="http://www.w3.org/1999/xlink">
<g id="graph0" class="graph" transform="scale(1 1) rotate(0) translate(4 544)">
<title>systemd</title>
<polygon fill="white" stroke="white" points="-4,5 -4,-544 2572.76,-544 2572.76,5 -4,5"/>
<!-- multi&#45;user.target -->
<g id="node1" class="node"><title>multi&#45;user.target</title>
<ellipse fill="none" stroke="black" cx="2158.76" cy="-522" rx="69.3156" ry="18"/>
<text text-anchor="middle" x="2158.76" y="-518.3" font-family="Times,serif" font-size="14.00">multi&#45;user.target</text>
</g>
<!-- basic.target -->
<g id="node2" class="node"><title>basic.target</title>
<ellipse fill="none" stroke="black" cx="340.761" cy="-450" rx="51.0191" ry="18"/>
<text text-anchor="middle" x="340.761" y="-446.3" font-family="Times,serif" font-size="14.00">basic.target</text>
</g>
<!-- multi&#45;user.target&#45;&gt;basic.target -->
<g id="edge1" class="edge"><title>multi&#45;user.target&#45;&gt;basic.target</title>
<path fill="none" stroke="green" d="M2090.81,-518.384C1801.71,-507.252 676.309,-463.92 401.531,-453.34"/>
<polygon fill="green" stroke="green" points="401.484,-449.836 391.357,-452.948 401.215,-456.83 401.484,-449.836"/>
</g>
<!-- getty.target -->
<g id="node3" class="node"><title>getty.target</title>
<ellipse fill="none" stroke="black" cx="2241.76" cy="-234" rx="50.5427" ry="18"/>
<text text-anchor="middle" x="2241.76" y="-230.3" font-family="Times,serif" font-size="14.00">getty.target</text>
</g>
<!-- multi&#45;user.target&#45;&gt;getty.target -->
<g id="edge2" class="edge"><title>multi&#45;user.target&#45;&gt;getty.target</title>
<path fill="none" stroke="green" d="M2173.41,-503.945C2181.18,-494.054 2190.23,-481.011 2195.76,-468 2225.73,-397.545 2236.43,-306.711 2240.04,-262.129"/>
<polygon fill="green" stroke="green" points="2243.54,-262.317 2240.8,-252.083 2236.56,-261.792 2243.54,-262.317"/>
</g>
<!-- rescue.target -->
<g id="node4" class="node"><title>rescue.target</title>
<ellipse fill="none" stroke="black" cx="1907.76" cy="-234" rx="55.3436" ry="18"/>
<text text-anchor="middle" x="1907.76" y="-230.3" font-family="Times,serif" font-size="14.00">rescue.target</text>
</g>
<!-- multi&#45;user.target&#45;&gt;rescue.target -->
<g id="edge3" class="edge"><title>multi&#45;user.target&#45;&gt;rescue.target</title>
<path fill="none" stroke="green" d="M2113.32,-508.396C2089.32,-499.98 2060.61,-486.927 2039.76,-468 1974.34,-408.604 1933.3,-308.979 1916.5,-261.594"/>
<polygon fill="green" stroke="green" points="1919.78,-260.348 1913.2,-252.044 1913.16,-262.638 1919.78,-260.348"/>
</g>
<!-- nfs&#45;client.target -->
<g id="node5" class="node"><title>nfs&#45;client.target</title>
<ellipse fill="none" stroke="black" cx="2072.76" cy="-90" rx="65.9423" ry="18"/>
<text text-anchor="middle" x="2072.76" y="-86.3" font-family="Times,serif" font-size="14.00">nfs&#45;client.target</text>
</g>
<!-- multi&#45;user.target&#45;&gt;nfs&#45;client.target -->
<g id="edge4" class="edge"><title>multi&#45;user.target&#45;&gt;nfs&#45;client.target</title>
<path fill="none" stroke="green" d="M2224.49,-516.156C2304.24,-509.22 2432.99,-494.298 2472.76,-468 2511.94,-442.094 2529.76,-425.973 2529.76,-379 2529.76,-379 2529.76,-379 2529.76,-233 2529.76,-153.221 2272.57,-113.225 2144.07,-98.2212"/>
<polygon fill="green" stroke="green" points="2144.25,-94.7196 2133.92,-97.0569 2143.46,-101.674 2144.25,-94.7196"/>
</g>
<!-- multi&#45;user.target&#45;&gt;basic.target -->
<g id="edge5" class="edge"><title>multi&#45;user.target&#45;&gt;basic.target</title>
<path fill="none" stroke="black" d="M2090.81,-518.384C1801.71,-507.252 676.309,-463.92 401.531,-453.34"/>
<polygon fill="black" stroke="black" points="401.484,-449.836 391.357,-452.948 401.215,-456.83 401.484,-449.836"/>
</g>
<!-- multi&#45;user.target&#45;&gt;nfs&#45;client.target -->
<g id="edge6" class="edge"><title>multi&#45;user.target&#45;&gt;nfs&#45;client.target</title>
<path fill="none" stroke="#a8a8a8" d="M2225.61,-517.208C2313.48,-511.155 2462.06,-496.919 2507.76,-468 2548.07,-442.492 2567.76,-426.705 2567.76,-379 2567.76,-379 2567.76,-379 2567.76,-233 2567.76,-170.113 2515.47,-168.983 2457.76,-144 2403.25,-120.402 2241.58,-104.192 2145.96,-96.371"/>
<polygon fill="#a8a8a8" stroke="#a8a8a8" points="2146.02,-92.8652 2135.77,-95.5496 2145.46,-99.8425 2146.02,-92.8652"/>
</g>
<!-- cloud&#45;init.target -->
<g id="node6" class="node"><title>cloud&#45;init.target</title>
<ellipse fill="none" stroke="black" cx="2377.76" cy="-234" rx="67.3907" ry="18"/>
<text text-anchor="middle" x="2377.76" y="-230.3" font-family="Times,serif" font-size="14.00">cloud&#45;init.target</text>
</g>
<!-- multi&#45;user.target&#45;&gt;cloud&#45;init.target -->
<g id="edge7" class="edge"><title>multi&#45;user.target&#45;&gt;cloud&#45;init.target</title>
<path fill="none" stroke="#a8a8a8" d="M2171.37,-503.828C2181.62,-493.9 2195.6,-480.86 2206.76,-468 2267.78,-397.674 2326.99,-304.206 2357.43,-260.086"/>
<polygon fill="#a8a8a8" stroke="#a8a8a8" points="2360.44,-261.894 2363.31,-251.694 2354.7,-257.88 2360.44,-261.894"/>
</g>
<!-- multi&#45;user.target&#45;&gt;getty.target -->
<g id="edge8" class="edge"><title>multi&#45;user.target&#45;&gt;getty.target</title>
<path fill="none" stroke="#a8a8a8" d="M2163.7,-503.966C2177.6,-456.079 2217.1,-319.98 2233.97,-261.852"/>
<polygon fill="#a8a8a8" stroke="#a8a8a8" points="2237.42,-262.524 2236.84,-251.945 2230.7,-260.573 2237.42,-262.524"/>
</g>
<!-- remote&#45;fs.target -->
<g id="node7" class="node"><title>remote&#45;fs.target</title>
<ellipse fill="none" stroke="black" cx="2105.76" cy="-234" rx="67.3907" ry="18"/>
<text text-anchor="middle" x="2105.76" y="-230.3" font-family="Times,serif" font-size="14.00">remote&#45;fs.target</text>
</g>
<!-- multi&#45;user.target&#45;&gt;remote&#45;fs.target -->
<g id="edge9" class="edge"><title>multi&#45;user.target&#45;&gt;remote&#45;fs.target</title>
<path fill="none" stroke="#a8a8a8" d="M2155.6,-503.966C2146.75,-456.192 2121.63,-320.623 2110.81,-262.266"/>
<polygon fill="#a8a8a8" stroke="#a8a8a8" points="2114.23,-261.501 2108.97,-252.306 2107.35,-262.777 2114.23,-261.501"/>
</g>
<!-- shutdown.target -->
<g id="node8" class="node"><title>shutdown.target</title>
<ellipse fill="none" stroke="black" cx="1129.76" cy="-306" rx="67.3907" ry="18"/>
<text text-anchor="middle" x="1129.76" y="-302.3" font-family="Times,serif" font-size="14.00">shutdown.target</text>
</g>
<!-- multi&#45;user.target&#45;&gt;shutdown.target -->
<g id="edge10" class="edge"><title>multi&#45;user.target&#45;&gt;shutdown.target</title>
<path fill="none" stroke="red" d="M2091.03,-517.993C1900.15,-508.382 1362.05,-474.326 1206.76,-396 1178.02,-381.502 1153.46,-353.488 1139.84,-332.746"/>
<polygon fill="red" stroke="red" points="1142.74,-330.782 1134.53,-324.083 1136.77,-334.438 1142.74,-330.782"/>
</g>
<!-- multi&#45;user.target&#45;&gt;rescue.target -->
<g id="edge11" class="edge"><title>multi&#45;user.target&#45;&gt;rescue.target</title>
<path fill="none" stroke="red" d="M2140.81,-504.387C2094.33,-456.307 1971.71,-316.829 1925.49,-259.771"/>
<polygon fill="red" stroke="red" points="1927.98,-257.279 1919,-251.659 1922.52,-261.653 1927.98,-257.279"/>
</g>
<!-- sockets.target -->
<g id="node15" class="node"><title>sockets.target</title>
<ellipse fill="none" stroke="black" cx="744.761" cy="-378" rx="59.2173" ry="18"/>
<text text-anchor="middle" x="744.761" y="-374.3" font-family="Times,serif" font-size="14.00">sockets.target</text>
</g>
<!-- basic.target&#45;&gt;sockets.target -->
<g id="edge21" class="edge"><title>basic.target&#45;&gt;sockets.target</title>
<path fill="none" stroke="green" d="M385.54,-441.241C458.51,-428.598 603.114,-403.543 684.846,-389.381"/>
<polygon fill="green" stroke="green" points="685.48,-392.824 694.735,-387.668 684.285,-385.927 685.48,-392.824"/>
</g>
<!-- slices.target -->
<g id="node16" class="node"><title>slices.target</title>
<ellipse fill="none" stroke="black" cx="91.7614" cy="-234" rx="52.4675" ry="18"/>
<text text-anchor="middle" x="91.7614" y="-230.3" font-family="Times,serif" font-size="14.00">slices.target</text>
</g>
<!-- basic.target&#45;&gt;slices.target -->
<g id="edge22" class="edge"><title>basic.target&#45;&gt;slices.target</title>
<path fill="none" stroke="green" d="M314.452,-434.336C297.397,-424.37 275.037,-410.419 256.761,-396 201.436,-352.348 144.159,-292.579 113.789,-259.514"/>
<polygon fill="green" stroke="green" points="115.991,-256.736 106.664,-251.71 110.821,-261.455 115.991,-256.736"/>
</g>
<!-- paths.target -->
<g id="node11" class="node"><title>paths.target</title>
<ellipse fill="none" stroke="black" cx="214.761" cy="-234" rx="51.4931" ry="18"/>
<text text-anchor="middle" x="214.761" y="-230.3" font-family="Times,serif" font-size="14.00">paths.target</text>
</g>
<!-- basic.target&#45;&gt;paths.target -->
<g id="edge23" class="edge"><title>basic.target&#45;&gt;paths.target</title>
<path fill="none" stroke="green" d="M330.874,-432.208C308.885,-394.86 255.817,-304.729 229.737,-260.435"/>
<polygon fill="green" stroke="green" points="232.692,-258.556 224.602,-251.714 226.66,-262.107 232.692,-258.556"/>
</g>
<!-- sysinit.target -->
<g id="node17" class="node"><title>sysinit.target</title>
<ellipse fill="none" stroke="black" cx="1008.76" cy="-162" rx="55.3436" ry="18"/>
<text text-anchor="middle" x="1008.76" y="-158.3" font-family="Times,serif" font-size="14.00">sysinit.target</text>
</g>
<!-- basic.target&#45;&gt;sysinit.target -->
<g id="edge24" class="edge"><title>basic.target&#45;&gt;sysinit.target</title>
<path fill="none" stroke="green" d="M293.328,-443.149C253.691,-436.319 197.261,-422.417 154.761,-396 70.0577,-343.349 -47.8286,-288.404 20.7614,-216 28.6926,-207.628 725.382,-175.422 943.977,-165.757"/>
<polygon fill="green" stroke="green" points="944.184,-169.252 954.02,-165.314 943.876,-162.259 944.184,-169.252"/>
</g>
<!-- basic.target&#45;&gt;sysinit.target -->
<g id="edge25" class="edge"><title>basic.target&#45;&gt;sysinit.target</title>
<path fill="none" stroke="black" d="M296.448,-440.978C260.967,-433.53 211.174,-419.877 172.761,-396 88.0577,-343.349 -29.8286,-288.404 38.7614,-216 46.6077,-207.717 728.542,-176.109 944.206,-166.076"/>
<polygon fill="black" stroke="black" points="944.595,-169.561 954.422,-165.6 944.27,-162.569 944.595,-169.561"/>
</g>
<!-- basic.target&#45;&gt;slices.target -->
<g id="edge26" class="edge"><title>basic.target&#45;&gt;slices.target</title>
<path fill="none" stroke="#a8a8a8" d="M303.047,-437.767C276.281,-428.806 240.202,-414.665 211.761,-396 173.397,-370.823 165.094,-360.859 137.761,-324 123.271,-304.46 110.884,-279.705 102.627,-261.267"/>
<polygon fill="#a8a8a8" stroke="#a8a8a8" points="105.793,-259.771 98.5865,-252.004 99.3764,-262.569 105.793,-259.771"/>
</g>
<!-- basic.target&#45;&gt;sockets.target -->
<g id="edge27" class="edge"><title>basic.target&#45;&gt;sockets.target</title>
<path fill="none" stroke="#a8a8a8" d="M385.54,-441.241C458.51,-428.598 603.114,-403.543 684.846,-389.381"/>
<polygon fill="#a8a8a8" stroke="#a8a8a8" points="685.48,-392.824 694.735,-387.668 684.285,-385.927 685.48,-392.824"/>
</g>
<!-- basic.target&#45;&gt;paths.target -->
<g id="edge28" class="edge"><title>basic.target&#45;&gt;paths.target</title>
<path fill="none" stroke="#a8a8a8" d="M321.539,-433.259C310.066,-423.296 295.658,-409.74 284.761,-396 261.742,-366.974 257.747,-357.88 242.761,-324 233.833,-303.815 226.477,-279.904 221.549,-261.951"/>
<polygon fill="#a8a8a8" stroke="#a8a8a8" points="224.892,-260.904 218.934,-252.143 218.128,-262.707 224.892,-260.904"/>
</g>
<!-- timers.target -->
<g id="node14" class="node"><title>timers.target</title>
<ellipse fill="none" stroke="black" cx="340.761" cy="-234" rx="55.3436" ry="18"/>
<text text-anchor="middle" x="340.761" y="-230.3" font-family="Times,serif" font-size="14.00">timers.target</text>
</g>
<!-- basic.target&#45;&gt;timers.target -->
<g id="edge29" class="edge"><title>basic.target&#45;&gt;timers.target</title>
<path fill="none" stroke="#a8a8a8" d="M340.761,-431.849C340.761,-394.832 340.761,-307.181 340.761,-262.386"/>
<polygon fill="#a8a8a8" stroke="#a8a8a8" points="344.261,-262.232 340.761,-252.232 337.261,-262.232 344.261,-262.232"/>
</g>
<!-- basic.target&#45;&gt;shutdown.target -->
<g id="edge30" class="edge"><title>basic.target&#45;&gt;shutdown.target</title>
<path fill="none" stroke="red" d="M390.771,-445.679C476.161,-439.73 654.846,-425.067 803.761,-396 901.085,-377.004 1012.07,-342.886 1076.31,-322.863"/>
<polygon fill="red" stroke="red" points="1077.71,-326.094 1086.21,-319.775 1075.62,-319.411 1077.71,-326.094"/>
</g>
<!-- getty.target&#45;&gt;shutdown.target -->
<g id="edge96" class="edge"><title>getty.target&#45;&gt;shutdown.target</title>
<path fill="none" stroke="red" d="M2209.63,-248.021C2203.44,-249.613 2196.96,-251.021 2190.76,-252 1762.43,-319.587 1645.89,-233.034 1215.76,-288 1207.75,-289.024 1199.34,-290.479 1191.03,-292.112"/>
<polygon fill="red" stroke="red" points="1190.07,-288.736 1180.98,-294.176 1191.48,-295.593 1190.07,-288.736"/>
</g>
<!-- rescue.target&#45;&gt;sysinit.target -->
<g id="edge48" class="edge"><title>rescue.target&#45;&gt;sysinit.target</title>
<path fill="none" stroke="green" d="M1857.26,-226.324C1832.82,-222.841 1803.24,-218.745 1776.76,-216 1516.84,-189.06 1206.53,-172.589 1073.92,-166.135"/>
<polygon fill="green" stroke="green" points="1073.7,-162.62 1063.54,-165.633 1073.36,-169.612 1073.7,-162.62"/>
</g>
<!-- rescue.target&#45;&gt;sysinit.target -->
<g id="edge49" class="edge"><title>rescue.target&#45;&gt;sysinit.target</title>
<path fill="none" stroke="black" d="M1860.71,-224.431C1840.47,-221.435 1816.56,-218.26 1794.76,-216 1528.03,-188.353 1208.22,-171.733 1073.49,-165.648"/>
<polygon fill="black" stroke="black" points="1073.49,-162.144 1063.34,-165.194 1073.17,-169.137 1073.49,-162.144"/>
</g>
<!-- rescue.target&#45;&gt;shutdown.target -->
<g id="edge50" class="edge"><title>rescue.target&#45;&gt;shutdown.target</title>
<path fill="none" stroke="red" d="M1870.55,-247.442C1862.75,-249.223 1854.55,-250.841 1846.76,-252 1568.92,-293.315 1494.02,-249.597 1215.76,-288 1207.86,-289.091 1199.56,-290.567 1191.35,-292.195"/>
<polygon fill="red" stroke="red" points="1190.5,-288.796 1181.41,-294.242 1191.91,-295.652 1190.5,-288.796"/>
</g>
<!-- graphical.target -->
<g id="node21" class="node"><title>graphical.target</title>
<ellipse fill="none" stroke="black" cx="1907.76" cy="-162" rx="65.4659" ry="18"/>
<text text-anchor="middle" x="1907.76" y="-158.3" font-family="Times,serif" font-size="14.00">graphical.target</text>
</g>
<!-- rescue.target&#45;&gt;graphical.target -->
<g id="edge51" class="edge"><title>rescue.target&#45;&gt;graphical.target</title>
<path fill="none" stroke="red" d="M1896,-216.055C1894.33,-208.145 1893.86,-198.54 1894.61,-189.688"/>
<polygon fill="red" stroke="red" points="1898.07,-190.187 1896.04,-179.789 1891.14,-189.185 1898.07,-190.187"/>
</g>
<!-- rescue.target&#45;&gt;multi&#45;user.target -->
<g id="edge52" class="edge"><title>rescue.target&#45;&gt;multi&#45;user.target</title>
<path fill="none" stroke="red" d="M1925.35,-251.232C1971.51,-298.926 2094.56,-438.869 2140.95,-496.137"/>
<polygon fill="red" stroke="red" points="2138.24,-498.349 2147.22,-503.966 2143.7,-493.973 2138.24,-498.349"/>
</g>
<!-- remote&#45;fs&#45;pre.target -->
<g id="node9" class="node"><title>remote&#45;fs&#45;pre.target</title>
<ellipse fill="none" stroke="black" cx="2072.76" cy="-162" rx="81.3646" ry="18"/>
<text text-anchor="middle" x="2072.76" y="-158.3" font-family="Times,serif" font-size="14.00">remote&#45;fs&#45;pre.target</text>
</g>
<!-- nfs&#45;client.target&#45;&gt;remote&#45;fs&#45;pre.target -->
<g id="edge12" class="edge"><title>nfs&#45;client.target&#45;&gt;remote&#45;fs&#45;pre.target</title>
<path fill="none" stroke="#a8a8a8" d="M2078.66,-108.104C2079.46,-115.791 2079.7,-125.054 2079.37,-133.665"/>
<polygon fill="#a8a8a8" stroke="#a8a8a8" points="2075.87,-133.48 2078.68,-143.697 2082.85,-133.96 2075.87,-133.48"/>
</g>
<!-- nfs&#45;client.target&#45;&gt;shutdown.target -->
<g id="edge13" class="edge"><title>nfs&#45;client.target&#45;&gt;shutdown.target</title>
<path fill="none" stroke="red" d="M2022.81,-101.958C1975.77,-111.727 1903.71,-127.068 1841.76,-144 1742.52,-171.126 1714.68,-171.824 1621.76,-216 1595.04,-228.705 1593.69,-242.219 1565.76,-252 1418.18,-303.695 1370.14,-263.103 1215.76,-288 1207.98,-289.255 1199.8,-290.806 1191.7,-292.456"/>
<polygon fill="red" stroke="red" points="1190.96,-289.035 1181.88,-294.504 1192.39,-295.887 1190.96,-289.035"/>
</g>
<!-- cloud&#45;init.target&#45;&gt;multi&#45;user.target -->
<g id="edge58" class="edge"><title>cloud&#45;init.target&#45;&gt;multi&#45;user.target</title>
<path fill="none" stroke="green" d="M2372.32,-251.989C2352.83,-291.72 2289.82,-393.015 2224.76,-468 2215.45,-478.736 2204.16,-489.597 2193.48,-498.668"/>
<polygon fill="green" stroke="green" points="2190.99,-496.183 2185.46,-505.225 2195.42,-501.601 2190.99,-496.183"/>
</g>
<!-- cloud&#45;init.target&#45;&gt;shutdown.target -->
<g id="edge59" class="edge"><title>cloud&#45;init.target&#45;&gt;shutdown.target</title>
<path fill="none" stroke="red" d="M2334.68,-247.834C2326.47,-249.497 2317.91,-250.975 2309.76,-252 1827.08,-312.698 1698.45,-227.302 1215.76,-288 1207.75,-289.008 1199.34,-290.454 1191.03,-292.084"/>
<polygon fill="red" stroke="red" points="1190.07,-288.707 1180.98,-294.145 1191.47,-295.565 1190.07,-288.707"/>
</g>
<!-- remote&#45;fs.target&#45;&gt;remote&#45;fs&#45;pre.target -->
<g id="edge65" class="edge"><title>remote&#45;fs.target&#45;&gt;remote&#45;fs&#45;pre.target</title>
<path fill="none" stroke="green" d="M2097.77,-216.055C2094.02,-208.091 2089.45,-198.411 2085.26,-189.51"/>
<polygon fill="green" stroke="green" points="2088.34,-187.828 2080.91,-180.275 2082,-190.813 2088.34,-187.828"/>
</g>
<!-- remote&#45;fs.target&#45;&gt;nfs&#45;client.target -->
<g id="edge66" class="edge"><title>remote&#45;fs.target&#45;&gt;nfs&#45;client.target</title>
<path fill="none" stroke="#a8a8a8" d="M2130.85,-217.061C2142.92,-207.859 2156.18,-195.113 2162.76,-180 2169.15,-165.332 2170.7,-157.891 2162.76,-144 2153.88,-128.471 2138.49,-117.041 2122.91,-108.856"/>
<polygon fill="#a8a8a8" stroke="#a8a8a8" points="2124.29,-105.635 2113.77,-104.405 2121.23,-111.929 2124.29,-105.635"/>
</g>
<!-- remote&#45;fs.target&#45;&gt;shutdown.target -->
<g id="edge67" class="edge"><title>remote&#45;fs.target&#45;&gt;shutdown.target</title>
<path fill="none" stroke="red" d="M2060.58,-247.483C2051.43,-249.259 2041.85,-250.865 2032.76,-252 1672.1,-297.036 1576.13,-240.643 1215.76,-288 1207.75,-289.053 1199.34,-290.523 1191.04,-292.163"/>
<polygon fill="red" stroke="red" points="1190.08,-288.787 1180.99,-294.231 1191.49,-295.644 1190.08,-288.787"/>
</g>
<!-- network.target -->
<g id="node24" class="node"><title>network.target</title>
<ellipse fill="none" stroke="black" cx="532.761" cy="-162" rx="61.6163" ry="18"/>
<text text-anchor="middle" x="532.761" y="-158.3" font-family="Times,serif" font-size="14.00">network.target</text>
</g>
<!-- shutdown.target&#45;&gt;network.target -->
<g id="edge69" class="edge"><title>shutdown.target&#45;&gt;network.target</title>
<path fill="none" stroke="red" d="M1062.69,-304.263C909.63,-301.867 545.389,-291.937 508.761,-252 493.127,-234.953 500.511,-207.972 511.291,-188.182"/>
<polygon fill="red" stroke="red" points="514.427,-189.76 516.591,-179.389 508.431,-186.147 514.427,-189.76"/>
</g>
<!-- local&#45;fs&#45;pre.target -->
<g id="node13" class="node"><title>local&#45;fs&#45;pre.target</title>
<ellipse fill="none" stroke="black" cx="1268.76" cy="-18" rx="73.1654" ry="18"/>
<text text-anchor="middle" x="1268.76" y="-14.3" font-family="Times,serif" font-size="14.00">local&#45;fs&#45;pre.target</text>
</g>
<!-- shutdown.target&#45;&gt;local&#45;fs&#45;pre.target -->
<g id="edge70" class="edge"><title>shutdown.target&#45;&gt;local&#45;fs&#45;pre.target</title>
<path fill="none" stroke="red" d="M1135.27,-287.807C1141.78,-277.659 1151.28,-264.409 1158.76,-252 1195.72,-190.732 1203.6,-174.2 1230.76,-108 1239.21,-87.4181 1246.91,-63.3986 1253.63,-45.5035"/>
<polygon fill="red" stroke="red" points="1256.96,-46.5875 1257.36,-36.0002 1250.45,-44.0273 1256.96,-46.5875"/>
</g>
<!-- network&#45;pre.target -->
<g id="node22" class="node"><title>network&#45;pre.target</title>
<ellipse fill="none" stroke="black" cx="433.761" cy="-90" rx="76.0649" ry="18"/>
<text text-anchor="middle" x="433.761" y="-86.3" font-family="Times,serif" font-size="14.00">network&#45;pre.target</text>
</g>
<!-- shutdown.target&#45;&gt;network&#45;pre.target -->
<g id="edge71" class="edge"><title>shutdown.target&#45;&gt;network&#45;pre.target</title>
<path fill="none" stroke="red" d="M1063.42,-302.941C910.421,-297.552 542.773,-281.376 495.761,-252 449.546,-223.121 433.264,-156.311 430.684,-118.457"/>
<polygon fill="red" stroke="red" points="434.17,-118.022 430.305,-108.158 427.175,-118.28 434.17,-118.022"/>
</g>
<!-- shutdown.target&#45;&gt;timers.target -->
<g id="edge72" class="edge"><title>shutdown.target&#45;&gt;timers.target</title>
<path fill="none" stroke="red" d="M1062.79,-303.862C933.841,-300.813 642.873,-289.9 401.761,-252 397.333,-251.304 392.773,-250.47 388.228,-249.549"/>
<polygon fill="red" stroke="red" points="388.878,-246.109 378.364,-247.417 387.399,-252.951 388.878,-246.109"/>
</g>
<!-- shutdown.target&#45;&gt;remote&#45;fs.target -->
<g id="edge73" class="edge"><title>shutdown.target&#45;&gt;remote&#45;fs.target</title>
<path fill="none" stroke="red" d="M1173.26,-292.162C1181.35,-290.523 1189.75,-289.052 1197.76,-288 1558.13,-240.643 1654.1,-297.036 2014.76,-252 2024.08,-250.837 2033.91,-249.179 2043.55,-247.35"/>
<polygon fill="red" stroke="red" points="2044.36,-250.757 2053.5,-245.395 2043.01,-243.889 2044.36,-250.757"/>
</g>
<!-- shutdown.target&#45;&gt;rescue.target -->
<g id="edge74" class="edge"><title>shutdown.target&#45;&gt;rescue.target</title>
<path fill="none" stroke="red" d="M1173.27,-292.254C1181.36,-290.602 1189.76,-289.104 1197.76,-288 1476.02,-249.597 1550.92,-293.315 1828.76,-252 1836.76,-250.81 1845.19,-249.136 1853.47,-247.298"/>
<polygon fill="red" stroke="red" points="1854.48,-250.655 1863.44,-244.997 1852.91,-243.834 1854.48,-250.655"/>
</g>
<!-- nss&#45;user&#45;lookup.target -->
<g id="node10" class="node"><title>nss&#45;user&#45;lookup.target</title>
<ellipse fill="none" stroke="black" cx="863.761" cy="-234" rx="89.0632" ry="18"/>
<text text-anchor="middle" x="863.761" y="-230.3" font-family="Times,serif" font-size="14.00">nss&#45;user&#45;lookup.target</text>
</g>
<!-- shutdown.target&#45;&gt;nss&#45;user&#45;lookup.target -->
<g id="edge75" class="edge"><title>shutdown.target&#45;&gt;nss&#45;user&#45;lookup.target</title>
<path fill="none" stroke="red" d="M1080.98,-293.519C1036.06,-282.185 969.476,-264.727 921.837,-251.827"/>
<polygon fill="red" stroke="red" points="922.541,-248.391 911.974,-249.147 920.706,-255.146 922.541,-248.391"/>
</g>
<!-- swap.target -->
<g id="node20" class="node"><title>swap.target</title>
<ellipse fill="none" stroke="black" cx="723.761" cy="-90" rx="51.0191" ry="18"/>
<text text-anchor="middle" x="723.761" y="-86.3" font-family="Times,serif" font-size="14.00">swap.target</text>
</g>
<!-- shutdown.target&#45;&gt;swap.target -->
<g id="edge76" class="edge"><title>shutdown.target&#45;&gt;swap.target</title>
<path fill="none" stroke="red" d="M1062.76,-304.036C967.597,-301.309 800.3,-290.971 756.761,-252 718.822,-218.041 713.217,-154.518 716.343,-118.243"/>
<polygon fill="red" stroke="red" points="719.865,-118.266 717.567,-107.923 712.914,-117.441 719.865,-118.266"/>
</g>
<!-- shutdown.target&#45;&gt;getty.target -->
<g id="edge77" class="edge"><title>shutdown.target&#45;&gt;getty.target</title>
<path fill="none" stroke="red" d="M1173.25,-292.112C1181.34,-290.479 1189.75,-289.024 1197.76,-288 1627.89,-233.034 1744.43,-319.587 2172.76,-252 2179.23,-250.98 2185.99,-249.493 2192.66,-247.817"/>
<polygon fill="red" stroke="red" points="2193.55,-251.2 2202.33,-245.258 2191.76,-244.433 2193.55,-251.2"/>
</g>
<!-- shutdown.target&#45;&gt;sockets.target -->
<g id="edge78" class="edge"><title>shutdown.target&#45;&gt;sockets.target</title>
<path fill="none" stroke="red" d="M1077.36,-317.432C1006.5,-330.75 880.577,-353.641 805.617,-366.831"/>
<polygon fill="red" stroke="red" points="804.633,-363.45 795.388,-368.626 805.843,-370.345 804.633,-363.45"/>
</g>
<!-- emergency.target -->
<g id="node18" class="node"><title>emergency.target</title>
<ellipse fill="none" stroke="black" cx="864.761" cy="-90" rx="72.2155" ry="18"/>
<text text-anchor="middle" x="864.761" y="-86.3" font-family="Times,serif" font-size="14.00">emergency.target</text>
</g>
<!-- shutdown.target&#45;&gt;emergency.target -->
<g id="edge79" class="edge"><title>shutdown.target&#45;&gt;emergency.target</title>
<path fill="none" stroke="red" d="M1097.7,-290.022C1079.41,-279.584 1056.55,-265.215 1036.76,-252 990.615,-221.185 976.12,-216.994 934.761,-180 912.827,-160.38 890.844,-135.04 877.207,-116.419"/>
<polygon fill="red" stroke="red" points="879.998,-114.303 871.39,-108.127 874.268,-118.324 879.998,-114.303"/>
</g>
<!-- shutdown.target&#45;&gt;graphical.target -->
<g id="edge80" class="edge"><title>shutdown.target&#45;&gt;graphical.target</title>
<path fill="none" stroke="red" d="M1173.69,-292.207C1181.65,-290.583 1189.9,-289.106 1197.76,-288 1325.42,-270.05 1655.49,-295.741 1776.76,-252 1797.42,-244.549 1843.29,-208.735 1875.04,-184.872"/>
<polygon fill="red" stroke="red" points="1877.27,-187.576 1883.19,-178.789 1873.08,-181.967 1877.27,-187.576"/>
</g>
<!-- local&#45;fs.target -->
<g id="node12" class="node"><title>local&#45;fs.target</title>
<ellipse fill="none" stroke="black" cx="1171.76" cy="-90" rx="59.1941" ry="18"/>
<text text-anchor="middle" x="1171.76" y="-86.3" font-family="Times,serif" font-size="14.00">local&#45;fs.target</text>
</g>
<!-- shutdown.target&#45;&gt;local&#45;fs.target -->
<g id="edge81" class="edge"><title>shutdown.target&#45;&gt;local&#45;fs.target</title>
<path fill="none" stroke="red" d="M1129.25,-287.849C1133,-250.662 1150.07,-162.374 1161.86,-117.772"/>
<polygon fill="red" stroke="red" points="1165.28,-118.507 1164.58,-107.935 1158.54,-116.638 1165.28,-118.507"/>
</g>
<!-- nss&#45;lookup.target -->
<g id="node26" class="node"><title>nss&#45;lookup.target</title>
<ellipse fill="none" stroke="black" cx="1321.76" cy="-234" rx="71.2405" ry="18"/>
<text text-anchor="middle" x="1321.76" y="-230.3" font-family="Times,serif" font-size="14.00">nss&#45;lookup.target</text>
</g>
<!-- shutdown.target&#45;&gt;nss&#45;lookup.target -->
<g id="edge82" class="edge"><title>shutdown.target&#45;&gt;nss&#45;lookup.target</title>
<path fill="none" stroke="red" d="M1163.95,-290.496C1193.3,-279.27 1235.91,-263.701 1269.51,-251.909"/>
<polygon fill="red" stroke="red" points="1270.88,-255.136 1279.17,-248.536 1268.58,-248.527 1270.88,-255.136"/>
</g>
<!-- shutdown.target&#45;&gt;cloud&#45;init.target -->
<g id="edge83" class="edge"><title>shutdown.target&#45;&gt;cloud&#45;init.target</title>
<path fill="none" stroke="red" d="M1172.84,-292.166C1181.05,-290.503 1189.61,-289.025 1197.76,-288 1680.45,-227.302 1809.08,-312.698 2291.76,-252 2299.78,-250.992 2308.19,-249.546 2316.5,-247.916"/>
<polygon fill="red" stroke="red" points="2317.45,-251.293 2326.55,-245.855 2316.05,-244.435 2317.45,-251.293"/>
</g>
<!-- shutdown.target&#45;&gt;nfs&#45;client.target -->
<g id="edge84" class="edge"><title>shutdown.target&#45;&gt;nfs&#45;client.target</title>
<path fill="none" stroke="red" d="M1174.14,-292.405C1181.97,-290.774 1190.06,-289.242 1197.76,-288 1352.14,-263.103 1400.18,-303.695 1547.76,-252 1575.69,-242.219 1577.04,-228.705 1603.76,-216 1696.68,-171.824 1724.52,-171.126 1823.76,-144 1885.5,-127.124 1957.29,-111.829 2007.96,-102.055"/>
<polygon fill="red" stroke="red" points="2008.64,-105.489 2017.8,-100.175 2007.33,-98.6134 2008.64,-105.489"/>
</g>
<!-- time&#45;sync.target -->
<g id="node27" class="node"><title>time&#45;sync.target</title>
<ellipse fill="none" stroke="black" cx="1479.76" cy="-234" rx="68.3664" ry="18"/>
<text text-anchor="middle" x="1479.76" y="-230.3" font-family="Times,serif" font-size="14.00">time&#45;sync.target</text>
</g>
<!-- shutdown.target&#45;&gt;time&#45;sync.target -->
<g id="edge85" class="edge"><title>shutdown.target&#45;&gt;time&#45;sync.target</title>
<path fill="none" stroke="red" d="M1175.48,-292.692C1182.9,-291.073 1190.52,-289.468 1197.76,-288 1284.14,-270.497 1306.36,-269.386 1392.76,-252 1400.21,-250.501 1408.05,-248.863 1415.86,-247.216"/>
<polygon fill="red" stroke="red" points="1416.64,-250.629 1425.7,-245.134 1415.19,-243.78 1416.64,-250.629"/>
</g>
<!-- shutdown.target&#45;&gt;paths.target -->
<g id="edge86" class="edge"><title>shutdown.target&#45;&gt;paths.target</title>
<path fill="none" stroke="red" d="M1062.39,-305.586C916.176,-305.94 559.732,-301.352 266.761,-252 263.716,-251.487 260.604,-250.882 257.489,-250.211"/>
<polygon fill="red" stroke="red" points="258.144,-246.769 247.607,-247.877 256.535,-253.582 258.144,-246.769"/>
</g>
<!-- shutdown.target&#45;&gt;sysinit.target -->
<g id="edge87" class="edge"><title>shutdown.target&#45;&gt;sysinit.target</title>
<path fill="none" stroke="red" d="M1106,-289.155C1094.44,-278.822 1081,-264.906 1069.76,-252 1051.84,-231.42 1032.78,-206.992 1020.51,-188.94"/>
<polygon fill="red" stroke="red" points="1023.16,-186.591 1014.76,-180.135 1017.3,-190.42 1023.16,-186.591"/>
</g>
<!-- shutdown.target&#45;&gt;slices.target -->
<g id="edge88" class="edge"><title>shutdown.target&#45;&gt;slices.target</title>
<path fill="none" stroke="red" d="M1062.99,-303.341C871.22,-298.131 321.685,-280.721 144.761,-252 141.666,-251.498 138.504,-250.901 135.338,-250.236"/>
<polygon fill="red" stroke="red" points="135.824,-246.756 125.293,-247.916 134.249,-253.577 135.824,-246.756"/>
</g>
<!-- cryptsetup.target -->
<g id="node19" class="node"><title>cryptsetup.target</title>
<ellipse fill="none" stroke="black" cx="1024.76" cy="-90" rx="69.3156" ry="18"/>
<text text-anchor="middle" x="1024.76" y="-86.3" font-family="Times,serif" font-size="14.00">cryptsetup.target</text>
</g>
<!-- shutdown.target&#45;&gt;cryptsetup.target -->
<g id="edge89" class="edge"><title>shutdown.target&#45;&gt;cryptsetup.target</title>
<path fill="none" stroke="red" d="M1120.79,-288.06C1110.05,-257.63 1092.63,-192.376 1063.76,-144 1057.78,-133.983 1049.73,-124.179 1042.37,-115.781"/>
<polygon fill="red" stroke="red" points="1044.88,-113.34 1035.62,-108.199 1039.65,-117.995 1044.88,-113.34"/>
</g>
<!-- network&#45;online.target -->
<g id="node23" class="node"><title>network&#45;online.target</title>
<ellipse fill="none" stroke="black" cx="613.761" cy="-234" rx="87.1385" ry="18"/>
<text text-anchor="middle" x="613.761" y="-230.3" font-family="Times,serif" font-size="14.00">network&#45;online.target</text>
</g>
<!-- shutdown.target&#45;&gt;network&#45;online.target -->
<g id="edge90" class="edge"><title>shutdown.target&#45;&gt;network&#45;online.target</title>
<path fill="none" stroke="red" d="M1068.35,-298.625C985.604,-289.308 834.196,-271.002 705.761,-252 698.687,-250.953 691.342,-249.816 684.022,-248.642"/>
<polygon fill="red" stroke="red" points="684.516,-245.176 674.083,-247.024 683.391,-252.085 684.516,-245.176"/>
</g>
<!-- cloud&#45;config.target -->
<g id="node25" class="node"><title>cloud&#45;config.target</title>
<ellipse fill="none" stroke="black" cx="1699.76" cy="-234" rx="77.4897" ry="18"/>
<text text-anchor="middle" x="1699.76" y="-230.3" font-family="Times,serif" font-size="14.00">cloud&#45;config.target</text>
</g>
<!-- shutdown.target&#45;&gt;cloud&#45;config.target -->
<g id="edge91" class="edge"><title>shutdown.target&#45;&gt;cloud&#45;config.target</title>
<path fill="none" stroke="red" d="M1174.13,-292.315C1181.95,-290.697 1190.05,-289.192 1197.76,-288 1374.6,-260.656 1421.48,-276.284 1598.76,-252 1608.76,-250.63 1619.33,-248.924 1629.72,-247.125"/>
<polygon fill="red" stroke="red" points="1630.38,-250.564 1639.62,-245.38 1629.16,-243.67 1630.38,-250.564"/>
</g>
<!-- shutdown.target&#45;&gt;remote&#45;fs&#45;pre.target -->
<g id="edge92" class="edge"><title>shutdown.target&#45;&gt;remote&#45;fs&#45;pre.target</title>
<path fill="none" stroke="red" d="M1173.26,-292.184C1181.35,-290.541 1189.75,-289.064 1197.76,-288 1366.47,-265.574 1805.01,-315.864 1962.76,-252 1996.33,-238.409 2026.27,-208.659 2046.67,-187.294"/>
<polygon fill="red" stroke="red" points="2049.39,-189.509 2053.74,-179.847 2044.32,-184.688 2049.39,-189.509"/>
</g>
<!-- shutdown.target&#45;&gt;basic.target -->
<g id="edge93" class="edge"><title>shutdown.target&#45;&gt;basic.target</title>
<path fill="none" stroke="red" d="M1093.2,-321.323C1035.87,-341.094 921.626,-376.507 821.761,-396 672.333,-425.167 492.928,-439.831 401.139,-445.74"/>
<polygon fill="red" stroke="red" points="400.683,-442.262 390.923,-446.384 401.124,-449.248 400.683,-442.262"/>
</g>
<!-- shutdown.target&#45;&gt;multi&#45;user.target -->
<g id="edge94" class="edge"><title>shutdown.target&#45;&gt;multi&#45;user.target</title>
<path fill="none" stroke="red" d="M1146.78,-323.721C1163.97,-344.5 1191.57,-379.26 1224.76,-396 1375.23,-471.899 1885.17,-506.228 2081.19,-517.029"/>
<polygon fill="red" stroke="red" points="2081.23,-520.536 2091.41,-517.586 2081.61,-513.546 2081.23,-520.536"/>
</g>
<!-- remote&#45;fs&#45;pre.target&#45;&gt;nfs&#45;client.target -->
<g id="edge14" class="edge"><title>remote&#45;fs&#45;pre.target&#45;&gt;nfs&#45;client.target</title>
<path fill="none" stroke="green" d="M2066.85,-143.697C2066.05,-135.983 2065.82,-126.712 2066.17,-118.112"/>
<polygon fill="green" stroke="green" points="2069.66,-118.324 2066.87,-108.104 2062.68,-117.836 2069.66,-118.324"/>
</g>
<!-- remote&#45;fs&#45;pre.target&#45;&gt;shutdown.target -->
<g id="edge15" class="edge"><title>remote&#45;fs&#45;pre.target&#45;&gt;shutdown.target</title>
<path fill="none" stroke="red" d="M2065.84,-180.215C2051.19,-201.517 2018.24,-236.828 1980.76,-252 1823.01,-315.864 1384.47,-265.574 1215.76,-288 1207.75,-289.064 1199.35,-290.541 1191.04,-292.184"/>
<polygon fill="red" stroke="red" points="1190.08,-288.809 1180.99,-294.254 1191.49,-295.665 1190.08,-288.809"/>
</g>
<!-- nss&#45;user&#45;lookup.target&#45;&gt;shutdown.target -->
<g id="edge16" class="edge"><title>nss&#45;user&#45;lookup.target&#45;&gt;shutdown.target</title>
<path fill="none" stroke="red" d="M919.469,-248.233C965.761,-259.976 1031.08,-277.141 1076.64,-289.518"/>
<polygon fill="red" stroke="red" points="1075.77,-292.907 1086.34,-292.161 1077.61,-286.154 1075.77,-292.907"/>
</g>
<!-- paths.target&#45;&gt;shutdown.target -->
<g id="edge17" class="edge"><title>paths.target&#45;&gt;shutdown.target</title>
<path fill="none" stroke="red" d="M255.401,-245.278C265.032,-247.882 275.221,-250.393 284.761,-252 564.607,-299.141 902.366,-305.439 1052.02,-305.6"/>
<polygon fill="red" stroke="red" points="1052.47,-309.1 1062.47,-305.602 1052.47,-302.1 1052.47,-309.1"/>
</g>
<!-- local&#45;fs.target&#45;&gt;local&#45;fs&#45;pre.target -->
<g id="edge18" class="edge"><title>local&#45;fs.target&#45;&gt;local&#45;fs&#45;pre.target</title>
<path fill="none" stroke="green" d="M1193.77,-73.1159C1206.86,-63.6744 1223.65,-51.5556 1238.03,-41.1807"/>
<polygon fill="green" stroke="green" points="1240.1,-43.997 1246.16,-35.307 1236.01,-38.3207 1240.1,-43.997"/>
</g>
<!-- local&#45;fs.target&#45;&gt;shutdown.target -->
<g id="edge19" class="edge"><title>local&#45;fs.target&#45;&gt;shutdown.target</title>
<path fill="none" stroke="red" d="M1172.26,-108.232C1168.51,-145.403 1151.51,-233.352 1139.73,-277.996"/>
<polygon fill="red" stroke="red" points="1136.29,-277.278 1137,-287.849 1143.04,-279.143 1136.29,-277.278"/>
</g>
<!-- local&#45;fs&#45;pre.target&#45;&gt;shutdown.target -->
<g id="edge57" class="edge"><title>local&#45;fs&#45;pre.target&#45;&gt;shutdown.target</title>
<path fill="none" stroke="red" d="M1270.72,-36.0002C1267.82,-54.1127 1258.82,-83.4932 1248.76,-108 1221.6,-174.2 1213.72,-190.732 1176.76,-252 1170.85,-261.797 1163.68,-272.119 1156.62,-281.024"/>
<polygon fill="red" stroke="red" points="1153.9,-278.821 1150.2,-288.749 1159.29,-283.294 1153.9,-278.821"/>
</g>
<!-- timers.target&#45;&gt;shutdown.target -->
<g id="edge20" class="edge"><title>timers.target&#45;&gt;shutdown.target</title>
<path fill="none" stroke="red" d="M385.099,-244.881C396.424,-247.574 408.519,-250.233 419.761,-252 648.345,-287.931 921.74,-299.606 1052.63,-303.32"/>
<polygon fill="red" stroke="red" points="1052.86,-306.828 1062.95,-303.605 1053.05,-299.831 1052.86,-306.828"/>
</g>
<!-- sockets.target&#45;&gt;shutdown.target -->
<g id="edge56" class="edge"><title>sockets.target&#45;&gt;shutdown.target</title>
<path fill="none" stroke="red" d="M792.67,-367.414C861.135,-354.513 986.969,-331.618 1064.07,-318.021"/>
<polygon fill="red" stroke="red" points="1064.9,-321.428 1074.15,-316.248 1063.69,-314.534 1064.9,-321.428"/>
</g>
<!-- slices.target&#45;&gt;shutdown.target -->
<g id="edge53" class="edge"><title>slices.target&#45;&gt;shutdown.target</title>
<path fill="none" stroke="red" d="M132.928,-245.321C142.711,-247.926 153.066,-250.426 162.761,-252 334.209,-279.832 855.562,-297.043 1052.98,-302.822"/>
<polygon fill="red" stroke="red" points="1053.16,-306.329 1063.26,-303.121 1053.37,-299.332 1053.16,-306.329"/>
</g>
<!-- sysinit.target&#45;&gt;emergency.target -->
<g id="edge31" class="edge"><title>sysinit.target&#45;&gt;emergency.target</title>
<path fill="none" stroke="green" d="M975.539,-147.503C953.145,-137.307 923.743,-123.136 900.799,-111.537"/>
<polygon fill="green" stroke="green" points="902.217,-108.331 891.719,-106.906 899.037,-114.567 902.217,-108.331"/>
</g>
<!-- sysinit.target&#45;&gt;local&#45;fs.target -->
<g id="edge32" class="edge"><title>sysinit.target&#45;&gt;local&#45;fs.target</title>
<path fill="none" stroke="green" d="M1040.96,-147.17C1066.36,-136.264 1101.99,-120.964 1129.65,-109.086"/>
<polygon fill="green" stroke="green" points="1131.26,-112.203 1139.07,-105.041 1128.5,-105.771 1131.26,-112.203"/>
</g>
<!-- sysinit.target&#45;&gt;cryptsetup.target -->
<g id="edge33" class="edge"><title>sysinit.target&#45;&gt;cryptsetup.target</title>
<path fill="none" stroke="green" d="M1012.72,-143.697C1014.48,-135.983 1016.6,-126.712 1018.56,-118.112"/>
<polygon fill="green" stroke="green" points="1022.04,-118.633 1020.85,-108.104 1015.21,-117.073 1022.04,-118.633"/>
</g>
<!-- sysinit.target&#45;&gt;swap.target -->
<g id="edge34" class="edge"><title>sysinit.target&#45;&gt;swap.target</title>
<path fill="none" stroke="green" d="M964.218,-151.126C918.72,-140.895 846.11,-124.167 783.761,-108 779.753,-106.961 775.602,-105.852 771.442,-104.719"/>
<polygon fill="green" stroke="green" points="772.351,-101.339 761.78,-102.049 770.487,-108.086 772.351,-101.339"/>
</g>
<!-- sysinit.target&#45;&gt;local&#45;fs.target -->
<g id="edge35" class="edge"><title>sysinit.target&#45;&gt;local&#45;fs.target</title>
<path fill="none" stroke="#a8a8a8" d="M1040.96,-147.17C1066.36,-136.264 1101.99,-120.964 1129.65,-109.086"/>
<polygon fill="#a8a8a8" stroke="#a8a8a8" points="1131.26,-112.203 1139.07,-105.041 1128.5,-105.771 1131.26,-112.203"/>
</g>
<!-- sysinit.target&#45;&gt;swap.target -->
<g id="edge36" class="edge"><title>sysinit.target&#45;&gt;swap.target</title>
<path fill="none" stroke="#a8a8a8" d="M964.218,-151.126C918.72,-140.895 846.11,-124.167 783.761,-108 779.753,-106.961 775.602,-105.852 771.442,-104.719"/>
<polygon fill="#a8a8a8" stroke="#a8a8a8" points="772.351,-101.339 761.78,-102.049 770.487,-108.086 772.351,-101.339"/>
</g>
<!-- sysinit.target&#45;&gt;cryptsetup.target -->
<g id="edge37" class="edge"><title>sysinit.target&#45;&gt;cryptsetup.target</title>
<path fill="none" stroke="#a8a8a8" d="M1012.72,-143.697C1014.48,-135.983 1016.6,-126.712 1018.56,-118.112"/>
<polygon fill="#a8a8a8" stroke="#a8a8a8" points="1022.04,-118.633 1020.85,-108.104 1015.21,-117.073 1022.04,-118.633"/>
</g>
<!-- sysinit.target&#45;&gt;emergency.target -->
<g id="edge38" class="edge"><title>sysinit.target&#45;&gt;emergency.target</title>
<path fill="none" stroke="red" d="M979.273,-146.666C957.917,-136.284 928.786,-122.123 905.251,-110.682"/>
<polygon fill="red" stroke="red" points="906.73,-107.51 896.206,-106.285 903.669,-113.805 906.73,-107.51"/>
</g>
<!-- sysinit.target&#45;&gt;shutdown.target -->
<g id="edge39" class="edge"><title>sysinit.target&#45;&gt;shutdown.target</title>
<path fill="none" stroke="red" d="M1027.23,-179.14C1043.26,-197.273 1066.33,-227.388 1087.76,-252 1095.98,-261.439 1105.38,-271.418 1113.35,-280.14"/>
<polygon fill="red" stroke="red" points="1110.9,-282.651 1120.19,-287.746 1116.1,-277.97 1110.9,-282.651"/>
</g>
<!-- emergency.target&#45;&gt;shutdown.target -->
<g id="edge62" class="edge"><title>emergency.target&#45;&gt;shutdown.target</title>
<path fill="none" stroke="red" d="M883.944,-107.451C901.262,-126.132 927.045,-156.997 952.761,-180 994.12,-216.994 1008.61,-221.185 1054.76,-252 1070.44,-262.468 1088.04,-273.659 1102.37,-283.048"/>
<polygon fill="red" stroke="red" points="1100.55,-286.04 1110.82,-288.639 1104.41,-280.202 1100.55,-286.04"/>
</g>
<!-- emergency.target&#45;&gt;sysinit.target -->
<g id="edge63" class="edge"><title>emergency.target&#45;&gt;sysinit.target</title>
<path fill="none" stroke="red" d="M900.575,-105.68C923.065,-115.978 951.817,-129.867 974.085,-141.152"/>
<polygon fill="red" stroke="red" points="972.697,-144.374 983.194,-145.811 975.884,-138.141 972.697,-144.374"/>
</g>
<!-- cryptsetup.target&#45;&gt;shutdown.target -->
<g id="edge54" class="edge"><title>cryptsetup.target&#45;&gt;shutdown.target</title>
<path fill="none" stroke="red" d="M1050.01,-106.808C1061.24,-116.692 1073.49,-130.142 1081.76,-144 1107.68,-187.422 1124.36,-244.442 1129.95,-277.672"/>
<polygon fill="red" stroke="red" points="1126.49,-278.176 1131.37,-287.577 1133.42,-277.181 1126.49,-278.176"/>
</g>
<!-- swap.target&#45;&gt;shutdown.target -->
<g id="edge68" class="edge"><title>swap.target&#45;&gt;shutdown.target</title>
<path fill="none" stroke="red" d="M727.694,-108.179C730.416,-141.437 733.005,-214.624 774.761,-252 815.007,-288.024 960.997,-299.581 1052.82,-303.277"/>
<polygon fill="red" stroke="red" points="1052.78,-306.778 1062.91,-303.661 1053.05,-299.783 1052.78,-306.778"/>
</g>
<!-- graphical.target&#45;&gt;rescue.target -->
<g id="edge40" class="edge"><title>graphical.target&#45;&gt;rescue.target</title>
<path fill="none" stroke="green" d="M1907.76,-180.104C1907.76,-187.791 1907.76,-197.054 1907.76,-205.665"/>
<polygon fill="green" stroke="green" points="1904.26,-205.697 1907.76,-215.697 1911.26,-205.697 1904.26,-205.697"/>
</g>
<!-- graphical.target&#45;&gt;multi&#45;user.target -->
<g id="edge41" class="edge"><title>graphical.target&#45;&gt;multi&#45;user.target</title>
<path fill="none" stroke="green" d="M1950.32,-175.706C1958.07,-177.342 1966.1,-178.846 1973.76,-180 2025.66,-187.822 2403.49,-183.57 2444.76,-216 2477.47,-241.705 2473.76,-263.398 2473.76,-305 2473.76,-379 2473.76,-379 2473.76,-379 2473.76,-483.291 2331.2,-511.704 2237.83,-519.015"/>
<polygon fill="green" stroke="green" points="2237.56,-515.526 2227.83,-519.733 2238.06,-522.508 2237.56,-515.526"/>
</g>
<!-- graphical.target&#45;&gt;multi&#45;user.target -->
<g id="edge42" class="edge"><title>graphical.target&#45;&gt;multi&#45;user.target</title>
<path fill="none" stroke="black" d="M1958.31,-173.623C1969.35,-176.038 1980.94,-178.368 1991.76,-180 2043.66,-187.822 2421.49,-183.57 2462.76,-216 2495.47,-241.705 2491.76,-263.398 2491.76,-305 2491.76,-379 2491.76,-379 2491.76,-379 2491.76,-487.697 2336.9,-513.969 2238.33,-519.833"/>
<polygon fill="black" stroke="black" points="2237.88,-516.351 2228.09,-520.381 2238.26,-523.341 2237.88,-516.351"/>
</g>
<!-- graphical.target&#45;&gt;shutdown.target -->
<g id="edge43" class="edge"><title>graphical.target&#45;&gt;shutdown.target</title>
<path fill="none" stroke="red" d="M1893.63,-179.758C1868.26,-203.246 1816.96,-243.994 1794.76,-252 1673.49,-295.741 1343.42,-270.05 1215.76,-288 1207.86,-289.111 1199.56,-290.598 1191.35,-292.232"/>
<polygon fill="red" stroke="red" points="1190.51,-288.833 1181.42,-294.282 1191.92,-295.688 1190.51,-288.833"/>
</g>
<!-- graphical.target&#45;&gt;rescue.target -->
<g id="edge44" class="edge"><title>graphical.target&#45;&gt;rescue.target</title>
<path fill="none" stroke="red" d="M1919.48,-179.789C1921.18,-187.677 1921.66,-197.275 1920.93,-206.137"/>
<polygon fill="red" stroke="red" points="1917.46,-205.661 1919.52,-216.055 1924.39,-206.649 1917.46,-205.661"/>
</g>
<!-- network&#45;pre.target&#45;&gt;shutdown.target -->
<g id="edge45" class="edge"><title>network&#45;pre.target&#45;&gt;shutdown.target</title>
<path fill="none" stroke="red" d="M440.227,-108.158C448.341,-142.752 462.984,-220.271 513.761,-252 558.814,-280.152 898.342,-296.181 1053.24,-302.211"/>
<polygon fill="red" stroke="red" points="1053.49,-305.724 1063.62,-302.611 1053.76,-298.729 1053.49,-305.724"/>
</g>
<!-- network&#45;online.target&#45;&gt;network.target -->
<g id="edge46" class="edge"><title>network&#45;online.target&#45;&gt;network.target</title>
<path fill="none" stroke="green" d="M594.565,-216.411C583.998,-207.279 570.726,-195.809 559.193,-185.842"/>
<polygon fill="green" stroke="green" points="561.395,-183.119 551.54,-179.228 556.818,-188.415 561.395,-183.119"/>
</g>
<!-- network&#45;online.target&#45;&gt;shutdown.target -->
<g id="edge47" class="edge"><title>network&#45;online.target&#45;&gt;shutdown.target</title>
<path fill="none" stroke="red" d="M681.464,-245.328C695.494,-247.629 710.129,-249.983 723.761,-252 841.933,-269.484 979.552,-286.378 1060.47,-296.224"/>
<polygon fill="red" stroke="red" points="1060.19,-299.715 1070.54,-297.448 1061.03,-292.766 1060.19,-299.715"/>
</g>
<!-- network.target&#45;&gt;network&#45;pre.target -->
<g id="edge60" class="edge"><title>network.target&#45;&gt;network&#45;pre.target</title>
<path fill="none" stroke="green" d="M510.297,-145.116C496.944,-135.674 479.804,-123.556 465.131,-113.181"/>
<polygon fill="green" stroke="green" points="467.01,-110.223 456.824,-107.307 462.969,-115.938 467.01,-110.223"/>
</g>
<!-- network.target&#45;&gt;shutdown.target -->
<g id="edge61" class="edge"><title>network.target&#45;&gt;shutdown.target</title>
<path fill="none" stroke="red" d="M528.951,-180.088C521.133,-199.948 508.862,-232.484 526.761,-252 561.84,-290.248 897.401,-300.973 1052.26,-303.917"/>
<polygon fill="red" stroke="red" points="1052.58,-307.424 1062.64,-304.108 1052.71,-300.425 1052.58,-307.424"/>
</g>
<!-- cloud&#45;config.target&#45;&gt;shutdown.target -->
<g id="edge55" class="edge"><title>cloud&#45;config.target&#45;&gt;shutdown.target</title>
<path fill="none" stroke="red" d="M1646.91,-247.224C1636.94,-248.986 1626.58,-250.655 1616.76,-252 1439.48,-276.284 1392.6,-260.656 1215.76,-288 1207.97,-289.205 1199.79,-290.728 1191.68,-292.365"/>
<polygon fill="red" stroke="red" points="1190.94,-288.943 1181.87,-294.404 1192.37,-295.797 1190.94,-288.943"/>
</g>
<!-- nss&#45;lookup.target&#45;&gt;shutdown.target -->
<g id="edge64" class="edge"><title>nss&#45;lookup.target&#45;&gt;shutdown.target</title>
<path fill="none" stroke="red" d="M1286.79,-249.804C1257.14,-261.131 1214.37,-276.748 1180.9,-288.481"/>
<polygon fill="red" stroke="red" points="1179.58,-285.237 1171.29,-291.834 1181.88,-291.846 1179.58,-285.237"/>
</g>
<!-- time&#45;sync.target&#45;&gt;shutdown.target -->
<g id="edge95" class="edge"><title>time&#45;sync.target&#45;&gt;shutdown.target</title>
<path fill="none" stroke="red" d="M1433.33,-247.292C1425.81,-248.914 1418.1,-250.524 1410.76,-252 1324.36,-269.386 1302.14,-270.497 1215.76,-288 1208.48,-289.475 1200.84,-291.087 1193.21,-292.713"/>
<polygon fill="red" stroke="red" points="1192.28,-289.333 1183.24,-294.849 1193.75,-296.177 1192.28,-289.333"/>
</g>
<!-- final.target -->
<g id="node28" class="node"><title>final.target</title>
<ellipse fill="none" stroke="black" cx="1273.76" cy="-378" rx="49.0941" ry="18"/>
<text text-anchor="middle" x="1273.76" y="-374.3" font-family="Times,serif" font-size="14.00">final.target</text>
</g>
<!-- final.target&#45;&gt;shutdown.target -->
<g id="edge97" class="edge"><title>final.target&#45;&gt;shutdown.target</title>
<path fill="none" stroke="green" d="M1245.31,-363.17C1223.75,-352.688 1193.84,-338.148 1169.85,-326.488"/>
<polygon fill="green" stroke="green" points="1171.17,-323.237 1160.64,-322.013 1168.11,-329.533 1171.17,-323.237"/>
</g>
<!-- umount.target -->
<g id="node29" class="node"><title>umount.target</title>
<ellipse fill="none" stroke="black" cx="1275.76" cy="-306" rx="60.1672" ry="18"/>
<text text-anchor="middle" x="1275.76" y="-302.3" font-family="Times,serif" font-size="14.00">umount.target</text>
</g>
<!-- final.target&#45;&gt;umount.target -->
<g id="edge98" class="edge"><title>final.target&#45;&gt;umount.target</title>
<path fill="none" stroke="green" d="M1274.26,-359.697C1274.48,-351.983 1274.74,-342.712 1274.99,-334.112"/>
<polygon fill="green" stroke="green" points="1278.49,-334.2 1275.27,-324.104 1271.49,-334 1278.49,-334.2"/>
</g>
</g>
</svg>
