<?xml version="1.0" encoding="UTF-8" standalone="no"?>
<!DOCTYPE svg PUBLIC "-//W3C//DTD SVG 1.1//EN"
 "http://www.w3.org/Graphics/SVG/1.1/DTD/svg11.dtd">
<!-- Generated by graphviz version 2.38.0 (20140413.2041)
 -->
<!-- Title: systemd Pages: 1 -->
<svg width="1184pt" height="188pt"
 viewBox="0.00 0.00 1183.79 188.00" xmlns="http://www.w3.org/2000/svg" xmlns:xlink="http://www.w3.org/1999/xlink">
<g id="graph0" class="graph" transform="scale(1 1) rotate(0) translate(4 184)">
<title>systemd</title>
<polygon fill="white" stroke="none" points="-4,4 -4,-184 1179.79,-184 1179.79,4 -4,4"/>
<!-- shutdown.target -->
<g id="node1" class="node"><title>shutdown.target</title>
<ellipse fill="none" stroke="black" cx="634.745" cy="-162" rx="67.6881" ry="18"/>
<text text-anchor="middle" x="634.745" y="-158.3" font-family="Times,serif" font-size="14.00">shutdown.target</text>
</g>
<!-- docker.service -->
<g id="node2" class="node"><title>docker.service</title>
<ellipse fill="none" stroke="black" cx="711.745" cy="-90" rx="61.99" ry="18"/>
<text text-anchor="middle" x="711.745" y="-86.3" font-family="Times,serif" font-size="14.00">docker.service</text>
</g>
<!-- shutdown.target&#45;&gt;docker.service -->
<g id="edge1" class="edge"><title>shutdown.target&#45;&gt;docker.service</title>
<path fill="none" stroke="green" d="M647.506,-144.055C656.655,-134.85 669.148,-123.35 680.745,-113.412"/>
<polygon fill="green" stroke="green" points="683.174,-115.943 688.578,-106.829 678.67,-110.584 683.174,-115.943"/>
</g>
<!-- docker.service&#45;&gt;shutdown.target -->
<g id="edge13" class="edge"><title>docker.service&#45;&gt;shutdown.target</title>
<path fill="none" stroke="red" d="M699.293,-107.633C690.247,-116.759 677.828,-128.209 666.241,-138.161"/>
<polygon fill="red" stroke="red" points="663.796,-135.644 658.404,-144.765 668.307,-140.998 663.796,-135.644"/>
</g>
<!-- network.target -->
<g id="node3" class="node"><title>network.target</title>
<ellipse fill="none" stroke="black" cx="61.7445" cy="-18" rx="61.99" ry="18"/>
<text text-anchor="middle" x="61.7445" y="-14.3" font-family="Times,serif" font-size="14.00">network.target</text>
</g>
<!-- docker.service&#45;&gt;network.target -->
<g id="edge2" class="edge"><title>docker.service&#45;&gt;network.target</title>
<path fill="none" stroke="green" d="M650.948,-86.3137C545.076,-80.9956 320.243,-66.8642 132.745,-36 127.273,-35.0993 121.598,-34.01 115.949,-32.8228"/>
<polygon fill="green" stroke="green" points="116.376,-29.3332 105.858,-30.5997 114.87,-36.1692 116.376,-29.3332"/>
</g>
<!-- systemd&#45;journald.socket -->
<g id="node4" class="node"><title>systemd&#45;journald.socket</title>
<ellipse fill="none" stroke="black" cx="238.745" cy="-18" rx="96.6831" ry="18"/>
<text text-anchor="middle" x="238.745" y="-14.3" font-family="Times,serif" font-size="14.00">systemd&#45;journald.socket</text>
</g>
<!-- docker.service&#45;&gt;systemd&#45;journald.socket -->
<g id="edge3" class="edge"><title>docker.service&#45;&gt;systemd&#45;journald.socket</title>
<path fill="none" stroke="green" d="M657.298,-81.4076C585.603,-71.348 455.64,-52.8989 344.745,-36 336.468,-34.7387 327.831,-33.3966 319.217,-32.0409"/>
<polygon fill="green" stroke="green" points="319.561,-28.5519 309.138,-30.4472 318.468,-35.466 319.561,-28.5519"/>
</g>
<!-- basic.target -->
<g id="node5" class="node"><title>basic.target</title>
<ellipse fill="none" stroke="black" cx="404.745" cy="-18" rx="51.1914" ry="18"/>
<text text-anchor="middle" x="404.745" y="-14.3" font-family="Times,serif" font-size="14.00">basic.target</text>
</g>
<!-- docker.service&#45;&gt;basic.target -->
<g id="edge4" class="edge"><title>docker.service&#45;&gt;basic.target</title>
<path fill="none" stroke="green" d="M661.852,-79.2811C611.806,-69.3012 532.631,-52.8817 464.745,-36 460.726,-35.0006 456.568,-33.9204 452.404,-32.8057"/>
<polygon fill="green" stroke="green" points="453.303,-29.4232 442.734,-30.1643 451.458,-36.1758 453.303,-29.4232"/>
</g>
<!-- system.slice -->
<g id="node6" class="node"><title>system.slice</title>
<ellipse fill="none" stroke="black" cx="527.745" cy="-18" rx="53.8905" ry="18"/>
<text text-anchor="middle" x="527.745" y="-14.3" font-family="Times,serif" font-size="14.00">system.slice</text>
</g>
<!-- docker.service&#45;&gt;system.slice -->
<g id="edge5" class="edge"><title>docker.service&#45;&gt;system.slice</title>
<path fill="none" stroke="green" d="M672.179,-75.9976C641.507,-64.9377 599.291,-48.9497 568.364,-36.7196"/>
<polygon fill="green" stroke="green" points="569.334,-33.3386 558.748,-32.8918 566.745,-39.8422 569.334,-33.3386"/>
</g>
<!-- docker.service&#45;&gt;system.slice -->
<g id="edge11" class="edge"><title>docker.service&#45;&gt;system.slice</title>
<path fill="none" stroke="black" d="M679.212,-74.496C650.178,-62.8827 607.483,-46.6211 574.76,-34.7026"/>
<polygon fill="black" stroke="black" points="575.545,-31.2646 564.95,-31.1531 573.163,-37.8469 575.545,-31.2646"/>
</g>
<!-- docker&#45;storage&#45;setup.service -->
<g id="node7" class="node"><title>docker&#45;storage&#45;setup.service</title>
<ellipse fill="none" stroke="black" cx="711.745" cy="-18" rx="111.581" ry="18"/>
<text text-anchor="middle" x="711.745" y="-14.3" font-family="Times,serif" font-size="14.00">docker&#45;storage&#45;setup.service</text>
</g>
<!-- docker.service&#45;&gt;docker&#45;storage&#45;setup.service -->
<g id="edge6" class="edge"><title>docker.service&#45;&gt;docker&#45;storage&#45;setup.service</title>
<path fill="none" stroke="green" d="M705.866,-72.055C705.048,-64.3456 704.806,-55.0269 705.139,-46.3642"/>
<polygon fill="green" stroke="green" points="708.639,-46.4915 705.832,-36.2753 701.655,-46.0122 708.639,-46.4915"/>
</g>
<!-- docker.service&#45;&gt;docker&#45;storage&#45;setup.service -->
<g id="edge12" class="edge"><title>docker.service&#45;&gt;docker&#45;storage&#45;setup.service</title>
<path fill="none" stroke="#a8a8a8" d="M717.623,-72.055C718.441,-64.3456 718.683,-55.0269 718.35,-46.3642"/>
<polygon fill="#a8a8a8" stroke="#a8a8a8" points="721.834,-46.0122 717.657,-36.2753 714.85,-46.4915 721.834,-46.0122"/>
</g>
<!-- sysinit.target -->
<g id="node8" class="node"><title>sysinit.target</title>
<ellipse fill="none" stroke="black" cx="897.745" cy="-18" rx="55.7903" ry="18"/>
<text text-anchor="middle" x="897.745" y="-14.3" font-family="Times,serif" font-size="14.00">sysinit.target</text>
</g>
<!-- docker.service&#45;&gt;sysinit.target -->
<g id="edge7" class="edge"><title>docker.service&#45;&gt;sysinit.target</title>
<path fill="none" stroke="green" d="M744.262,-74.6655C773.608,-63.0523 816.975,-46.7098 850.188,-34.7362"/>
<polygon fill="green" stroke="green" points="851.47,-37.9947 859.703,-31.3268 849.109,-31.405 851.47,-37.9947"/>
</g>
<!-- docker.service&#45;&gt;sysinit.target -->
<g id="edge9" class="edge"><title>docker.service&#45;&gt;sysinit.target</title>
<path fill="none" stroke="black" d="M751.682,-75.9976C782.804,-64.8899 825.712,-48.8112 857.025,-36.561"/>
<polygon fill="black" stroke="black" points="858.321,-39.812 866.344,-32.8918 855.757,-33.2986 858.321,-39.812"/>
</g>
<!-- docker&#45;containerd.service -->
<g id="node9" class="node"><title>docker&#45;containerd.service</title>
<ellipse fill="none" stroke="black" cx="1073.74" cy="-18" rx="102.082" ry="18"/>
<text text-anchor="middle" x="1073.74" y="-14.3" font-family="Times,serif" font-size="14.00">docker&#45;containerd.service</text>
</g>
<!-- docker.service&#45;&gt;docker&#45;containerd.service -->
<g id="edge8" class="edge"><title>docker.service&#45;&gt;docker&#45;containerd.service</title>
<path fill="none" stroke="green" d="M760.203,-78.6713C820.297,-66.6304 923.356,-46.6635 994.877,-33.1774"/>
<polygon fill="green" stroke="green" points="995.572,-36.6082 1004.75,-31.3189 994.277,-29.7289 995.572,-36.6082"/>
</g>
<!-- docker.service&#45;&gt;docker&#45;containerd.service -->
<g id="edge10" class="edge"><title>docker.service&#45;&gt;docker&#45;containerd.service</title>
<path fill="none" stroke="black" d="M763.415,-79.9205C825.558,-68.3556 930.11,-48.2009 1000.53,-34.2578"/>
<polygon fill="black" stroke="black" points="1001.53,-37.6267 1010.66,-32.2475 1000.17,-30.7606 1001.53,-37.6267"/>
</g>
<!-- multi&#45;user.target -->
<g id="node10" class="node"><title>multi&#45;user.target</title>
<ellipse fill="none" stroke="black" cx="789.745" cy="-162" rx="69.5877" ry="18"/>
<text text-anchor="middle" x="789.745" y="-158.3" font-family="Times,serif" font-size="14.00">multi&#45;user.target</text>
</g>
<!-- multi&#45;user.target&#45;&gt;docker.service -->
<g id="edge14" class="edge"><title>multi&#45;user.target&#45;&gt;docker.service</title>
<path fill="none" stroke="green" d="M765.853,-144.765C754.958,-135.882 742.297,-124.709 731.888,-114.854"/>
<polygon fill="green" stroke="green" points="734.052,-112.077 724.434,-107.633 729.182,-117.105 734.052,-112.077"/>
</g>
<!-- multi&#45;user.target&#45;&gt;docker.service -->
<g id="edge15" class="edge"><title>multi&#45;user.target&#45;&gt;docker.service</title>
<path fill="none" stroke="#a8a8a8" d="M776.741,-144.055C767.461,-134.85 754.803,-123.35 743.064,-113.412"/>
<polygon fill="#a8a8a8" stroke="#a8a8a8" points="745.067,-110.526 735.138,-106.829 740.594,-115.911 745.067,-110.526"/>
</g>
</g>
</svg>
