<?xml version="1.0" encoding="UTF-8" standalone="no"?>
<!DOCTYPE svg PUBLIC "-//W3C//DTD SVG 1.1//EN"
 "http://www.w3.org/Graphics/SVG/1.1/DTD/svg11.dtd">
<!-- Generated by graphviz version 2.40.1 (0)
 -->
<!-- Title: systemd Pages: 1 -->
<svg width="2157pt" height="188pt"
 viewBox="0.00 0.00 2156.98 188.00" xmlns="http://www.w3.org/2000/svg" xmlns:xlink="http://www.w3.org/1999/xlink">
<g id="graph0" class="graph" transform="scale(1 1) rotate(0) translate(4 184)">
<title>systemd</title>
<polygon fill="#ffffff" stroke="transparent" points="-4,4 -4,-184 2152.9815,-184 2152.9815,4 -4,4"/>
<!-- multi&#45;user.target -->
<g id="node1" class="node">
<title>multi&#45;user.target</title>
<ellipse fill="none" stroke="#000000" cx="969.7422" cy="-162" rx="89.0842" ry="18"/>
<text text-anchor="middle" x="969.7422" y="-158.3" font-family="Times,serif" font-size="14.00" fill="#000000">multi&#45;user.target</text>
</g>
<!-- docker.service -->
<g id="node2" class="node">
<title>docker.service</title>
<ellipse fill="none" stroke="#000000" cx="969.7422" cy="-90" rx="78.7863" ry="18"/>
<text text-anchor="middle" x="969.7422" y="-86.3" font-family="Times,serif" font-size="14.00" fill="#000000">docker.service</text>
</g>
<!-- multi&#45;user.target&#45;&gt;docker.service -->
<g id="edge1" class="edge">
<title>multi&#45;user.target&#45;&gt;docker.service</title>
<path fill="none" stroke="#00ff00" d="M963.7898,-143.8314C963.0394,-136.131 962.8185,-126.9743 963.1271,-118.4166"/>
<polygon fill="#00ff00" stroke="#00ff00" points="966.6214,-118.6161 963.7662,-108.4133 959.6357,-118.1697 966.6214,-118.6161"/>
</g>
<!-- multi&#45;user.target&#45;&gt;docker.service -->
<g id="edge2" class="edge">
<title>multi&#45;user.target&#45;&gt;docker.service</title>
<path fill="none" stroke="#a8a8a8" d="M975.6946,-143.8314C976.445,-136.131 976.6659,-126.9743 976.3573,-118.4166"/>
<polygon fill="#a8a8a8" stroke="#a8a8a8" points="979.8488,-118.1697 975.7182,-108.4133 972.863,-118.6161 979.8488,-118.1697"/>
</g>
<!-- shutdown.target -->
<g id="node3" class="node">
<title>shutdown.target</title>
<ellipse fill="none" stroke="#000000" cx="87.7422" cy="-18" rx="87.9851" ry="18"/>
<text text-anchor="middle" x="87.7422" y="-14.3" font-family="Times,serif" font-size="14.00" fill="#000000">shutdown.target</text>
</g>
<!-- docker.service&#45;&gt;shutdown.target -->
<g id="edge18" class="edge">
<title>docker.service&#45;&gt;shutdown.target</title>
<path fill="none" stroke="#ff0000" d="M891.5084,-87.775C748.6231,-82.9199 436.4535,-69.046 175.7422,-36 169.3862,-35.1944 162.8167,-34.2398 156.2598,-33.1972"/>
<polygon fill="#ff0000" stroke="#ff0000" points="156.437,-29.6788 145.999,-31.4948 155.2912,-36.5844 156.437,-29.6788"/>
</g>
<!-- registries.service -->
<g id="node4" class="node">
<title>registries.service</title>
<ellipse fill="none" stroke="#000000" cx="285.7422" cy="-18" rx="92.0841" ry="18"/>
<text text-anchor="middle" x="285.7422" y="-14.3" font-family="Times,serif" font-size="14.00" fill="#000000">registries.service</text>
</g>
<!-- docker.service&#45;&gt;registries.service -->
<g id="edge4" class="edge">
<title>docker.service&#45;&gt;registries.service</title>
<path fill="none" stroke="#00ff00" d="M893.3523,-85.3789C780.1902,-77.7594 561.8306,-60.8847 377.7422,-36 371.1605,-35.1103 364.3533,-34.0979 357.5537,-33.0174"/>
<polygon fill="#00ff00" stroke="#00ff00" points="358.0582,-29.5535 347.6241,-31.3919 356.9273,-36.4615 358.0582,-29.5535"/>
</g>
<!-- docker.service&#45;&gt;registries.service -->
<g id="edge16" class="edge">
<title>docker.service&#45;&gt;registries.service</title>
<path fill="none" stroke="#000000" d="M894.4133,-84.6322C784.4833,-76.6896 574.0385,-60.1017 395.7422,-36 386.0786,-34.6937 375.9288,-33.1228 365.8547,-31.4603"/>
<polygon fill="#000000" stroke="#000000" points="366.2687,-27.9809 355.8266,-29.7737 365.1076,-34.8839 366.2687,-27.9809"/>
</g>
<!-- basic.target -->
<g id="node5" class="node">
<title>basic.target</title>
<ellipse fill="none" stroke="#000000" cx="462.7422" cy="-18" rx="66.8882" ry="18"/>
<text text-anchor="middle" x="462.7422" y="-14.3" font-family="Times,serif" font-size="14.00" fill="#000000">basic.target</text>
</g>
<!-- docker.service&#45;&gt;basic.target -->
<g id="edge5" class="edge">
<title>docker.service&#45;&gt;basic.target</title>
<path fill="none" stroke="#00ff00" d="M896.5502,-83.2606C810.5097,-74.7775 663.6037,-58.5403 538.7422,-36 533.1003,-34.9815 527.2489,-33.8084 521.4111,-32.5596"/>
<polygon fill="#00ff00" stroke="#00ff00" points="522.1584,-29.1404 511.6387,-30.4004 520.6481,-35.9755 522.1584,-29.1404"/>
</g>
<!-- network.target -->
<g id="node6" class="node">
<title>network.target</title>
<ellipse fill="none" stroke="#000000" cx="628.7422" cy="-18" rx="81.4863" ry="18"/>
<text text-anchor="middle" x="628.7422" y="-14.3" font-family="Times,serif" font-size="14.00" fill="#000000">network.target</text>
</g>
<!-- docker.service&#45;&gt;network.target -->
<g id="edge6" class="edge">
<title>docker.service&#45;&gt;network.target</title>
<path fill="none" stroke="#00ff00" d="M911.8962,-77.7862C852.6454,-65.2757 760.541,-45.8285 697.5766,-32.5339"/>
<polygon fill="#00ff00" stroke="#00ff00" points="698.2382,-29.0965 687.7308,-30.4551 696.792,-35.9455 698.2382,-29.0965"/>
</g>
<!-- docker&#45;containerd.service -->
<g id="node7" class="node">
<title>docker&#45;containerd.service</title>
<ellipse fill="none" stroke="#000000" cx="860.7422" cy="-18" rx="132.6765" ry="18"/>
<text text-anchor="middle" x="860.7422" y="-14.3" font-family="Times,serif" font-size="14.00" fill="#000000">docker&#45;containerd.service</text>
</g>
<!-- docker.service&#45;&gt;docker&#45;containerd.service -->
<g id="edge7" class="edge">
<title>docker.service&#45;&gt;docker&#45;containerd.service</title>
<path fill="none" stroke="#00ff00" d="M938.6607,-73.3008C923.4433,-63.9246 905.2983,-52.0685 890.2939,-41.7409"/>
<polygon fill="#00ff00" stroke="#00ff00" points="892.0733,-38.7149 881.8684,-35.8671 888.0701,-44.4572 892.0733,-38.7149"/>
</g>
<!-- docker.service&#45;&gt;docker&#45;containerd.service -->
<g id="edge13" class="edge">
<title>docker.service&#45;&gt;docker&#45;containerd.service</title>
<path fill="none" stroke="#000000" d="M949.2346,-72.5708C935.8593,-63.0896 918.0782,-51.2419 901.9211,-41.0107"/>
<polygon fill="#000000" stroke="#000000" points="903.4832,-37.8593 893.1503,-35.5182 899.768,-43.7921 903.4832,-37.8593"/>
</g>
<!-- system.slice -->
<g id="node8" class="node">
<title>system.slice</title>
<ellipse fill="none" stroke="#000000" cx="1079.7422" cy="-18" rx="68.4888" ry="18"/>
<text text-anchor="middle" x="1079.7422" y="-14.3" font-family="Times,serif" font-size="14.00" fill="#000000">system.slice</text>
</g>
<!-- docker.service&#45;&gt;system.slice -->
<g id="edge8" class="edge">
<title>docker.service&#45;&gt;system.slice</title>
<path fill="none" stroke="#00ff00" d="M990.4919,-72.5708C1004.6289,-62.6474 1023.6282,-50.1316 1040.513,-39.5901"/>
<polygon fill="#00ff00" stroke="#00ff00" points="1042.4418,-42.5126 1049.1129,-34.2817 1038.765,-36.556 1042.4418,-42.5126"/>
</g>
<!-- docker.service&#45;&gt;system.slice -->
<g id="edge14" class="edge">
<title>docker.service&#45;&gt;system.slice</title>
<path fill="none" stroke="#000000" d="M1001.0557,-73.3008C1016.6306,-63.7857 1035.2561,-51.7166 1050.5319,-41.2829"/>
<polygon fill="#000000" stroke="#000000" points="1052.8591,-43.9289 1059.0906,-35.3603 1048.8758,-38.1727 1052.8591,-43.9289"/>
</g>
<!-- systemd&#45;journald.socket -->
<g id="node9" class="node">
<title>systemd&#45;journald.socket</title>
<ellipse fill="none" stroke="#000000" cx="1290.7422" cy="-18" rx="124.5782" ry="18"/>
<text text-anchor="middle" x="1290.7422" y="-14.3" font-family="Times,serif" font-size="14.00" fill="#000000">systemd&#45;journald.socket</text>
</g>
<!-- docker.service&#45;&gt;systemd&#45;journald.socket -->
<g id="edge9" class="edge">
<title>docker.service&#45;&gt;systemd&#45;journald.socket</title>
<path fill="none" stroke="#00ff00" d="M1026.0235,-77.3762C1077.9506,-65.729 1155.5194,-48.3304 1213.2829,-35.3741"/>
<polygon fill="#00ff00" stroke="#00ff00" points="1214.1088,-38.7759 1223.1003,-33.172 1212.5767,-31.9456 1214.1088,-38.7759"/>
</g>
<!-- sysinit.target -->
<g id="node10" class="node">
<title>sysinit.target</title>
<ellipse fill="none" stroke="#000000" cx="1506.7422" cy="-18" rx="73.387" ry="18"/>
<text text-anchor="middle" x="1506.7422" y="-14.3" font-family="Times,serif" font-size="14.00" fill="#000000">sysinit.target</text>
</g>
<!-- docker.service&#45;&gt;sysinit.target -->
<g id="edge10" class="edge">
<title>docker.service&#45;&gt;sysinit.target</title>
<path fill="none" stroke="#00ff00" d="M1042.4859,-82.9699C1131.0343,-74.3435 1284.7485,-58.096 1415.7422,-36 1423.5076,-34.6901 1431.6479,-33.1314 1439.7434,-31.4871"/>
<polygon fill="#00ff00" stroke="#00ff00" points="1440.4868,-34.9075 1449.5679,-29.45 1439.0656,-28.0533 1440.4868,-34.9075"/>
</g>
<!-- docker.service&#45;&gt;sysinit.target -->
<g id="edge15" class="edge">
<title>docker.service&#45;&gt;sysinit.target</title>
<path fill="none" stroke="#000000" d="M1044.0491,-84.0143C1136.1082,-75.6952 1297.2578,-59.0222 1433.7422,-36 1438.229,-35.2432 1442.8409,-34.4032 1447.4644,-33.5117"/>
<polygon fill="#000000" stroke="#000000" points="1448.4424,-36.8855 1457.5605,-31.4899 1447.0678,-30.0217 1448.4424,-36.8855"/>
</g>
<!-- docker&#45;storage&#45;setup.service -->
<g id="node11" class="node">
<title>docker&#45;storage&#45;setup.service</title>
<ellipse fill="none" stroke="#000000" cx="1744.7422" cy="-18" rx="146.4744" ry="18"/>
<text text-anchor="middle" x="1744.7422" y="-14.3" font-family="Times,serif" font-size="14.00" fill="#000000">docker&#45;storage&#45;setup.service</text>
</g>
<!-- docker.service&#45;&gt;docker&#45;storage&#45;setup.service -->
<g id="edge11" class="edge">
<title>docker.service&#45;&gt;docker&#45;storage&#45;setup.service</title>
<path fill="none" stroke="#00ff00" d="M1043.5878,-83.7609C1158.3831,-74.3672 1386.2902,-55.595 1579.7422,-36 1594.4274,-34.5125 1609.8786,-32.8491 1625.1999,-31.1507"/>
<polygon fill="#00ff00" stroke="#00ff00" points="1625.6897,-34.6179 1635.2402,-30.0311 1624.9139,-27.661 1625.6897,-34.6179"/>
</g>
<!-- docker.service&#45;&gt;docker&#45;storage&#45;setup.service -->
<g id="edge17" class="edge">
<title>docker.service&#45;&gt;docker&#45;storage&#45;setup.service</title>
<path fill="none" stroke="#a8a8a8" d="M1045.0004,-84.5577C1163.0777,-75.4601 1398.6557,-56.1657 1597.7422,-36 1609.3972,-34.8195 1621.5345,-33.5281 1633.6215,-32.1964"/>
<polygon fill="#a8a8a8" stroke="#a8a8a8" points="1634.1991,-35.6538 1643.7509,-31.0698 1633.4253,-28.6967 1634.1991,-35.6538"/>
</g>
<!-- rhel&#45;push&#45;plugin.socket -->
<g id="node12" class="node">
<title>rhel&#45;push&#45;plugin.socket</title>
<ellipse fill="none" stroke="#000000" cx="2028.7422" cy="-18" rx="120.4791" ry="18"/>
<text text-anchor="middle" x="2028.7422" y="-14.3" font-family="Times,serif" font-size="14.00" fill="#000000">rhel&#45;push&#45;plugin.socket</text>
</g>
<!-- docker.service&#45;&gt;rhel&#45;push&#45;plugin.socket -->
<g id="edge12" class="edge">
<title>docker.service&#45;&gt;rhel&#45;push&#45;plugin.socket</title>
<path fill="none" stroke="#000000" d="M1047.9872,-87.5883C1208.1657,-82.1816 1584.8853,-67.0567 1899.7422,-36 1910.7945,-34.9098 1922.354,-33.5755 1933.8193,-32.1307"/>
<polygon fill="#000000" stroke="#000000" points="1934.3855,-35.5867 1943.8555,-30.836 1933.4899,-28.6443 1934.3855,-35.5867"/>
</g>
<!-- shutdown.target&#45;&gt;docker.service -->
<g id="edge3" class="edge">
<title>shutdown.target&#45;&gt;docker.service</title>
<path fill="none" stroke="#00ff00" d="M154.044,-29.8014C167.2146,-32.1413 180.9134,-34.3739 193.7422,-36 442.2221,-67.4956 737.4451,-81.5759 881.6898,-87.0311"/>
<polygon fill="#00ff00" stroke="#00ff00" points="881.6882,-90.5334 891.8118,-87.4091 881.9495,-83.5383 881.6882,-90.5334"/>
</g>
</g>
</svg>
